<svg width="182" height="43" viewBox="0 0 182 43" fill="none" xmlns="http://www.w3.org/2000/svg">
<g clip-path="url(#clip0)">
<path d="M13.4872 17.4507C13.1579 17.932 12.9218 18.2885 12.7736 18.5143C12.4443 18.9956 12.1918 19.3699 12.0161 19.6254H5.4948V30.4036H13.4872V34.7529H4.01818H1.47114V19.6254C1.14178 19.1441 0.889269 18.7698 0.713611 18.5143C0.384252 18.033 0.148211 17.6765 0 17.4507C0.329359 16.9338 0.565399 16.5476 0.713611 16.2921C1.04297 15.8108 1.29548 15.4543 1.47114 15.2285V0H13.4818V4.39685H5.4948V15.2226H12.0161C12.3455 15.7039 12.598 16.0604 12.7736 16.2862C13.0975 16.8031 13.339 17.1893 13.4872 17.4507Z" fill="url(#paint0_linear)"/>
<path d="M30.4437 16.2921C30.7731 16.809 31.0091 17.1953 31.1574 17.4508C30.828 17.932 30.592 18.2885 30.4437 18.5143C30.1144 18.9956 29.8783 19.3699 29.7301 19.6254C28.5993 26.3633 27.7485 31.4018 27.1831 34.7529H23.8785H22.9838C21.853 28.0151 21.0021 22.9765 20.4367 19.6254C20.1074 19.1441 19.8713 18.7698 19.7231 18.5143C19.3937 18.033 19.1412 17.6765 18.9656 17.4508C19.3224 16.9338 19.5749 16.5476 19.7231 16.2921C19.7835 16.1971 19.8274 16.1317 19.8548 16.096C18.6692 8.97196 17.7744 3.64227 17.1816 0.0950775H21.068C22.9124 11.5982 24.2957 20.2374 25.2234 26.0068C26.947 14.5037 28.2315 5.86446 29.0659 0.0950775H32.9963C31.8051 7.21916 30.9103 12.5489 30.3175 16.096C30.3669 16.1911 30.4108 16.2565 30.4437 16.2921Z" fill="url(#paint1_linear)"/>
<path d="M49.4642 17.4507C49.1348 17.932 48.8988 18.2885 48.7506 18.5143C48.4212 18.9956 48.1687 19.3699 47.9931 19.6254H41.4718V30.4036H49.4642V34.7529H40.0006H37.4536V19.6254C37.1242 19.1441 36.8717 18.7698 36.6961 18.5143C36.3667 18.033 36.1307 17.6765 35.9825 17.4507C36.3118 16.9338 36.5478 16.5476 36.6961 16.2921C37.0254 15.8108 37.2779 15.4543 37.4536 15.2285V0H49.4642V4.39685H41.4718V15.2226H47.9931C48.3224 15.7039 48.5749 16.0604 48.7506 16.2862C49.08 16.8031 49.316 17.1893 49.4642 17.4507Z" fill="url(#paint2_linear)"/>
<path d="M67.3594 18.5618L67.0904 18.9956C66.9148 19.2511 66.7611 19.4769 66.6458 19.6729V19.8631V21.1227C66.6458 22.4121 66.256 23.5232 65.482 24.456C64.7355 25.3888 63.8023 25.9414 62.6715 26.1018L63.2973 27.409C63.6815 28.3122 64.1481 29.3282 64.6806 30.4571C65.0374 31.2295 65.3777 31.9901 65.7071 32.7268L66.6458 34.7589H65.9761H65.1252H62.6221L61.9963 33.4517C61.5791 32.5486 61.118 31.5325 60.613 30.4036L59.5426 28.0864C59.1858 27.3437 58.8729 26.6841 58.6039 26.1018V27.409V30.4571V32.7268V34.7589H57.0889H54.6296V32.6793V27.8962V24.3193V21.1287V20.5464V19.6254L54.3607 19.1917C54.1521 18.9362 53.9874 18.7104 53.8721 18.5143L53.6031 18.1281C53.422 17.837 53.2738 17.6112 53.1585 17.4507L53.4714 17.017C53.6526 16.7615 53.8008 16.5357 53.916 16.3397L54.2289 15.9534C54.4101 15.6623 54.5583 15.4365 54.6736 15.2761V13.6837V10.1009V7.39147V5.07421V3.1907V0.0950775H56.3698H59.2297H59.8555H60.8381H60.9698H62.0841C63.3357 0.0950775 64.4061 0.576354 65.3009 1.54485C66.1956 2.51334 66.6403 3.6898 66.6403 5.07421V6.61905V10.1959V12.9054V15.2761L66.9093 15.6623C67.0849 15.9178 67.2386 16.1436 67.3539 16.3397L67.6668 16.7734C67.8479 17.0289 67.9961 17.2547 68.1114 17.4507L67.8424 17.837C67.6723 18.1281 67.5076 18.3658 67.3594 18.5618ZM62.6276 6.28632C62.6276 5.76939 62.4629 5.33565 62.139 4.97915C61.7822 4.62264 61.3815 4.45033 60.9314 4.45033H60.0805H58.6533V7.0112V7.10627V13.149V17.7419V21.7525H58.7851H58.9168H60.9314C61.409 21.7525 61.8097 21.5565 62.139 21.1702C62.4684 20.8137 62.6276 20.3978 62.6276 19.9106V19.3283V15.2167V11.5447V6.28632Z" fill="url(#paint3_linear)"/>
<path d="M85.551 12.0854L85.282 12.4716L84.8374 13.1965L83.3168 13.149H80.8137V12.8103V10.7307V8.84719V6.13778C80.8137 5.68621 80.6655 5.28218 80.3691 4.93162C80.0726 4.61077 79.6994 4.45034 79.2547 4.45034H79.1669H78.4094C77.9647 4.45034 77.5915 4.61077 77.295 4.93162C76.9986 5.28812 76.8504 5.69216 76.8504 6.13778V6.42893V8.31244V10.0058V12.4241C76.8504 12.9707 76.9821 13.4877 77.2511 13.9689C77.5201 14.4502 77.8934 14.7889 78.3654 14.985L78.5466 15.1276C78.6948 15.1929 79.1998 15.4365 80.0671 15.8524C80.4239 16.0129 80.8686 16.2387 81.4065 16.5298C81.9445 16.7853 82.5812 17.1121 83.3278 17.4983C83.8054 17.7241 84.1786 18.0628 84.4421 18.5143C84.7111 18.9956 84.8428 19.5125 84.8428 20.0592V20.4929V23.44V26.1969V30.0174C84.8428 31.3068 84.4092 32.4179 83.5474 33.3507C82.6855 34.2836 81.659 34.753 80.4679 34.753H80.2867H80.0617H77.2456C76.027 34.753 74.995 34.2836 74.1661 33.3507C73.3043 32.4179 72.8706 31.3068 72.8706 30.0174V28.6152V26.2445L72.6017 25.8107C72.3931 25.5552 72.2284 25.3294 72.1131 25.1334L71.8441 24.7472C71.663 24.456 71.5148 24.2302 71.3995 24.0698L71.6685 23.6361L72.1131 22.9112L72.426 22.525C72.6017 22.2338 72.7663 22.008 72.9146 21.8476L74.4351 21.8001H76.9382V22.0912V24.1708V26.1019V28.7578C76.9382 29.2391 77.0864 29.6431 77.3829 29.964C77.6793 30.2848 78.0526 30.4452 78.4972 30.4452H78.585H79.3425C79.7872 30.4452 80.1605 30.2848 80.4569 29.964C80.7533 29.6431 80.9015 29.2391 80.9015 28.7578V28.5201V26.6841C80.9015 26.2682 80.885 25.7335 80.8576 25.0918V22.721C80.8576 22.1744 80.7259 21.6753 80.4569 21.2237C80.1879 20.7425 79.8146 20.386 79.3425 20.1602L79.1175 20.0651C78.9967 19.97 78.5082 19.7086 77.6463 19.2927C77.2895 19.1026 76.8559 18.8768 76.3509 18.6153C75.8129 18.3598 75.1762 18.033 74.4296 17.6468C73.952 17.3913 73.5788 17.0348 73.3153 16.5833C73.0463 16.102 72.9146 15.5851 72.9146 15.0384V14.6047V11.5625V8.85313V4.93162C72.9146 3.61256 73.3482 2.48364 74.21 1.5508C75.0444 0.617953 76.0709 0.14856 77.2895 0.14856H77.6903H80.5063C81.6975 0.14856 82.724 0.617953 83.5858 1.5508C84.4476 2.48364 84.8813 3.61256 84.8813 4.93162V6.33386V8.75213L85.1502 9.18587C85.3259 9.44136 85.4796 9.66715 85.5949 9.86322L85.9078 10.2494C86.0889 10.5406 86.2371 10.7664 86.3524 10.9268L86.0395 11.3605C85.8639 11.6517 85.6992 11.8893 85.551 12.0854Z" fill="url(#paint4_linear)"/>
<path d="M99.2742 13.149V12.8578V10.9268V9.13834V6.625C99.2742 6.04272 99.0821 5.54361 98.6923 5.1277C98.2752 4.67613 97.7976 4.45034 97.2651 4.45034C96.6997 4.45034 96.2222 4.67613 95.8379 5.1277C95.4482 5.54956 95.256 6.04866 95.256 6.625V6.96368V9.18587V11.1704V14.0699V19.9166V28.2765C95.256 28.8588 95.4482 29.3698 95.8379 29.8214C96.2222 30.2432 96.6997 30.4512 97.2651 30.4512C97.8031 30.4512 98.2752 30.2432 98.6923 29.8214C99.0766 29.3698 99.2742 28.8529 99.2742 28.2765V27.2605V24.9908V23.2974V21.8001H100.795H103.298V22.1388V24.6046V26.8267V30.0174C103.298 31.3068 102.864 32.4179 102.002 33.3507C101.141 34.2836 100.114 34.753 98.9229 34.753H98.7418H98.5167H95.7007C94.482 34.753 93.45 34.2836 92.6212 33.3507C91.7593 32.4179 91.3257 31.3068 91.3257 30.0174V28.4251V24.7531V21.9962V19.5779L91.0567 19.1917C90.8811 18.9362 90.7274 18.7104 90.6121 18.5143L90.3431 18.1281C90.1674 17.837 90.0137 17.6112 89.8985 17.4508L90.2114 17.017C90.3925 16.7615 90.5407 16.5357 90.656 16.3397L90.925 15.9535C91.1061 15.698 91.2543 15.4841 91.3696 15.3236V14.8424V11.7467V8.94226V4.93162C91.3696 3.61256 91.8033 2.48364 92.6651 1.5508C93.4995 0.617953 94.526 0.14856 95.7446 0.14856H96.1453H98.9558C100.147 0.14856 101.174 0.617953 102.035 1.5508C102.897 2.48364 103.331 3.61256 103.331 4.93162V6.19126V9.04327V11.2179V13.149H101.81H99.2742Z" fill="url(#paint5_linear)"/>
<path d="M123.021 34.7529H122.351H121.5H118.909L118.641 33.1606C118.459 32.0673 118.311 31.1642 118.196 30.4512H117.213H115.023H113.371H111.944L111.631 32.0435C111.45 33.1368 111.301 34.0399 111.186 34.7529H109.622H107.031L107.431 32.2871C107.7 30.6413 107.997 28.7578 108.326 26.6307C108.535 25.2462 108.76 23.844 108.996 22.4239C109.232 21.0039 109.429 19.7502 109.578 18.651L109.534 18.5559C109.506 18.4905 109.473 18.443 109.446 18.4133L109.177 18.0271C108.996 17.736 108.848 17.5102 108.732 17.3497L109.001 16.916C109.182 16.6605 109.331 16.4347 109.446 16.2386L109.715 15.8524C109.924 15.5613 110.088 15.3236 110.209 15.1275L110.566 12.8578C110.835 11.313 111.131 9.55425 111.461 7.58755C111.669 6.23284 111.878 4.89596 112.086 3.57691C112.295 2.25785 112.487 1.09328 112.668 0.0950775H114.452H117.4L117.801 2.41828C118.037 3.96312 118.322 5.73968 118.652 7.73609C118.888 9.05514 119.113 10.3801 119.321 11.6992C119.53 13.0183 119.722 14.1947 119.903 15.2286L120.172 15.6148C120.348 15.8703 120.501 16.096 120.617 16.2921L120.886 16.6783C121.067 16.9695 121.226 17.2071 121.38 17.4032L121.067 17.7894C120.886 18.0509 120.737 18.2707 120.622 18.4668L120.578 18.5618L120.447 18.7044L120.847 21.1702C121.116 22.8161 121.413 24.6818 121.742 26.7792L122.456 31.0334C122.675 32.4535 122.867 33.6894 123.021 34.7529ZM117.394 26.0543L117.038 23.3984C116.796 21.6575 116.533 19.6611 116.236 17.4032L115.61 12.8578C115.402 11.3427 115.21 10.0058 115.029 8.84719L114.672 11.5031C114.436 13.244 114.15 15.2583 113.821 17.5458C113.612 19.0312 113.404 20.5285 113.195 22.0437C112.987 23.5588 112.805 24.8957 112.657 26.0543H113.459H114.441H117.394Z" fill="url(#paint6_linear)"/>
<path d="M139.829 18.5143L139.56 18.9481C139.379 19.2035 139.231 19.4293 139.116 19.6254V19.8215V21.1287C139.116 22.418 138.726 23.5291 137.957 24.4619C137.211 25.3948 136.278 25.9474 135.147 26.1078H133.626H131.123V27.415V30.463V32.7328V34.7648H130.454H129.603H127.149V32.6852V27.9022V24.3253V21.1346V20.5523V19.6313L126.88 19.1976C126.671 18.9421 126.507 18.7163 126.391 18.5203L126.122 18.134C125.947 17.8429 125.793 17.6171 125.678 17.4567L125.947 17.0229L126.391 16.2981L126.704 15.9119C126.885 15.6207 127.034 15.3949 127.149 15.2345V13.6421V10.1009V7.39147V5.07421V3.1907V0.0950775H128.845H131.705H132.331H133.313H133.445H134.56C135.811 0.0950775 136.882 0.576354 137.776 1.54485C138.671 2.51334 139.116 3.6898 139.116 5.07421V6.61905V10.1484V12.8578V15.2286L139.385 15.6148C139.566 15.8703 139.714 16.096 139.829 16.2921L140.142 16.7259L140.587 17.4508L140.318 17.837C140.142 18.0925 139.977 18.3182 139.829 18.5143ZM135.141 6.28632C135.141 5.76939 134.977 5.33565 134.647 4.97915C134.291 4.62264 133.89 4.45034 133.44 4.45034H132.589H131.162V7.0112V7.10627V13.149V17.7419V21.7525H131.293H131.425H133.434C133.912 21.7525 134.313 21.5565 134.642 21.1702C134.971 20.8137 135.136 20.3978 135.136 19.9106V19.3283V15.2167V11.5447V6.28632H135.141Z" fill="url(#paint7_linear)"/>
<path d="M157.768 17.4507C157.439 17.932 157.203 18.2885 157.055 18.5143C156.725 18.9956 156.473 19.3699 156.297 19.6254H149.776V30.4036H157.768V34.7529H148.299H145.752V19.6254C145.423 19.1441 145.17 18.7698 144.995 18.5143C144.665 18.033 144.429 17.6765 144.281 17.4507C144.61 16.9338 144.847 16.5476 144.995 16.2921C145.324 15.8108 145.577 15.4543 145.752 15.2285V0H157.763V4.39685H149.77V15.2226H156.292C156.621 15.7039 156.874 16.0604 157.049 16.2862C157.379 16.8031 157.615 17.1893 157.768 17.4507Z" fill="url(#paint8_linear)"/>
<path d="M174.807 12.0854L174.538 12.4716L174.094 13.1965L172.573 13.149H170.07V12.8103V10.7307V8.84719V6.13778C170.07 5.68621 169.922 5.28218 169.625 4.93162C169.329 4.61077 168.956 4.45034 168.511 4.45034H168.423H167.666C167.221 4.45034 166.848 4.61077 166.551 4.93162C166.255 5.28812 166.107 5.69216 166.107 6.13778V6.42893V8.31244V10.0058V12.4241C166.107 12.9707 166.238 13.4877 166.507 13.9689C166.776 14.4502 167.15 14.7889 167.622 14.985L167.797 15.1276C167.946 15.1929 168.451 15.4365 169.318 15.8524C169.675 16.0129 170.119 16.2387 170.657 16.5298C171.195 16.7853 171.832 17.1121 172.579 17.4983C173.056 17.7241 173.429 18.0628 173.693 18.5143C173.962 18.9956 174.094 19.5125 174.094 20.0592V20.4929V23.44V26.1969V30.0174C174.094 31.3068 173.66 32.4179 172.798 33.3507C171.936 34.2836 170.91 34.753 169.719 34.753H169.543H169.318H166.507C165.289 34.753 164.257 34.2836 163.428 33.3507C162.566 32.4179 162.132 31.3068 162.132 30.0174V28.6152V26.2445L161.863 25.8107C161.655 25.5552 161.49 25.3294 161.375 25.1334L161.106 24.7472C160.93 24.456 160.776 24.2302 160.661 24.0698L160.93 23.6361L161.375 22.9112L161.688 22.525C161.869 22.2338 162.028 22.008 162.182 21.8476L163.702 21.8001H166.205V22.0912V24.1708V26.1019V28.7578C166.205 29.2391 166.354 29.6431 166.65 29.964C166.946 30.2848 167.32 30.4452 167.764 30.4452H167.852H168.61C169.054 30.4452 169.428 30.2848 169.724 29.964C170.021 29.6431 170.169 29.2391 170.169 28.7578V28.5201V26.6841C170.169 26.2682 170.152 25.7335 170.125 25.0918V22.721C170.125 22.1744 169.993 21.6753 169.724 21.2237C169.455 20.7425 169.082 20.386 168.61 20.1602L168.385 20.0651C168.264 19.97 167.775 19.7086 166.914 19.2927C166.557 19.1026 166.123 18.8768 165.618 18.6153C165.08 18.3598 164.443 18.033 163.697 17.6468C163.219 17.3913 162.846 17.0348 162.582 16.5833C162.313 16.102 162.182 15.5851 162.182 15.0384V14.6047V11.5625V8.85313V4.93162C162.182 3.61256 162.615 2.48364 163.477 1.5508C164.312 0.617953 165.338 0.14856 166.557 0.14856H166.957H169.768C170.959 0.14856 171.986 0.617953 172.847 1.5508C173.709 2.48364 174.143 3.61256 174.143 4.93162V6.33386V8.75213L174.412 9.18587C174.593 9.44136 174.741 9.66715 174.857 9.86322L175.169 10.2494C175.345 10.5406 175.499 10.7664 175.614 10.9268L175.301 11.3605C175.12 11.6517 174.955 11.8893 174.807 12.0854Z" fill="url(#paint9_linear)"/>
<path d="M174.116 40.2074H1.49858V43H174.116V40.2074Z" fill="url(#paint10_linear)"/>
</g>
<defs>
<linearGradient id="paint0_linear" x1="6.74335" y1="34.7546" x2="6.74335" y2="0" gradientUnits="userSpaceOnUse">
<stop stop-color="white"/>
<stop offset="0.2152" stop-color="#FCFBFB"/>
<stop offset="0.4105" stop-color="#F2F0F0"/>
<stop offset="0.598" stop-color="#E2DEDE"/>
<stop offset="0.7808" stop-color="#CBC4C4"/>
<stop offset="0.9586" stop-color="#AEA3A3"/>
<stop offset="1" stop-color="#A69A9A"/>
</linearGradient>
<linearGradient id="paint1_linear" x1="25.0839" y1="34.7546" x2="25.0839" y2="0.0965649" gradientUnits="userSpaceOnUse">
<stop stop-color="white"/>
<stop offset="0.2152" stop-color="#FCFBFB"/>
<stop offset="0.4105" stop-color="#F2F0F0"/>
<stop offset="0.598" stop-color="#E2DEDE"/>
<stop offset="0.7808" stop-color="#CBC4C4"/>
<stop offset="0.9586" stop-color="#AEA3A3"/>
<stop offset="1" stop-color="#A69A9A"/>
</linearGradient>
<linearGradient id="paint2_linear" x1="42.7229" y1="34.7546" x2="42.7229" y2="0" gradientUnits="userSpaceOnUse">
<stop stop-color="white"/>
<stop offset="0.2152" stop-color="#FCFBFB"/>
<stop offset="0.4105" stop-color="#F2F0F0"/>
<stop offset="0.598" stop-color="#E2DEDE"/>
<stop offset="0.7808" stop-color="#CBC4C4"/>
<stop offset="0.9586" stop-color="#AEA3A3"/>
<stop offset="1" stop-color="#A69A9A"/>
</linearGradient>
<linearGradient id="paint3_linear" x1="60.6391" y1="34.7546" x2="60.6391" y2="0.0965649" gradientUnits="userSpaceOnUse">
<stop stop-color="white"/>
<stop offset="0.2152" stop-color="#FCFBFB"/>
<stop offset="0.4105" stop-color="#F2F0F0"/>
<stop offset="0.598" stop-color="#E2DEDE"/>
<stop offset="0.7808" stop-color="#CBC4C4"/>
<stop offset="0.9586" stop-color="#AEA3A3"/>
<stop offset="1" stop-color="#A69A9A"/>
</linearGradient>
<linearGradient id="paint4_linear" x1="68.7683" y1="25.6889" x2="90.1108" y2="10.8305" gradientUnits="userSpaceOnUse">
<stop stop-color="white"/>
<stop offset="0.2152" stop-color="#FCFBFB"/>
<stop offset="0.4105" stop-color="#F2F0F0"/>
<stop offset="0.598" stop-color="#E2DEDE"/>
<stop offset="0.7808" stop-color="#CBC4C4"/>
<stop offset="0.9586" stop-color="#AEA3A3"/>
<stop offset="1" stop-color="#A69A9A"/>
</linearGradient>
<linearGradient id="paint5_linear" x1="96.6181" y1="0.144995" x2="96.6181" y2="34.7546" gradientUnits="userSpaceOnUse">
<stop stop-color="white"/>
<stop offset="0.2152" stop-color="#FCFBFB"/>
<stop offset="0.4105" stop-color="#F2F0F0"/>
<stop offset="0.598" stop-color="#E2DEDE"/>
<stop offset="0.7808" stop-color="#CBC4C4"/>
<stop offset="0.9586" stop-color="#AEA3A3"/>
<stop offset="1" stop-color="#A69A9A"/>
</linearGradient>
<linearGradient id="paint6_linear" x1="115.025" y1="0.0965629" x2="115.025" y2="34.7546" gradientUnits="userSpaceOnUse">
<stop stop-color="white"/>
<stop offset="0.2152" stop-color="#FCFBFB"/>
<stop offset="0.4105" stop-color="#F2F0F0"/>
<stop offset="0.598" stop-color="#E2DEDE"/>
<stop offset="0.7808" stop-color="#CBC4C4"/>
<stop offset="0.9586" stop-color="#AEA3A3"/>
<stop offset="1" stop-color="#A69A9A"/>
</linearGradient>
<linearGradient id="paint7_linear" x1="133.129" y1="0.0965629" x2="133.129" y2="34.7546" gradientUnits="userSpaceOnUse">
<stop stop-color="white"/>
<stop offset="0.2152" stop-color="#FCFBFB"/>
<stop offset="0.4105" stop-color="#F2F0F0"/>
<stop offset="0.598" stop-color="#E2DEDE"/>
<stop offset="0.7808" stop-color="#CBC4C4"/>
<stop offset="0.9586" stop-color="#AEA3A3"/>
<stop offset="1" stop-color="#A69A9A"/>
</linearGradient>
<linearGradient id="paint8_linear" x1="151.023" y1="0" x2="151.023" y2="34.7546" gradientUnits="userSpaceOnUse">
<stop stop-color="white"/>
<stop offset="0.2152" stop-color="#FCFBFB"/>
<stop offset="0.4105" stop-color="#F2F0F0"/>
<stop offset="0.598" stop-color="#E2DEDE"/>
<stop offset="0.7808" stop-color="#CBC4C4"/>
<stop offset="0.9586" stop-color="#AEA3A3"/>
<stop offset="1" stop-color="#A69A9A"/>
</linearGradient>
<linearGradient id="paint9_linear" x1="168.131" y1="0.144995" x2="168.131" y2="34.7546" gradientUnits="userSpaceOnUse">
<stop stop-color="white"/>
<stop offset="0.2152" stop-color="#FCFBFB"/>
<stop offset="0.4105" stop-color="#F2F0F0"/>
<stop offset="0.598" stop-color="#E2DEDE"/>
<stop offset="0.7808" stop-color="#CBC4C4"/>
<stop offset="0.9586" stop-color="#AEA3A3"/>
<stop offset="1" stop-color="#A69A9A"/>
</linearGradient>
<linearGradient id="paint10_linear" x1="1.496" y1="41.6235" x2="174.115" y2="41.6235" gradientUnits="userSpaceOnUse">
<stop offset="2.49653e-07" stop-color="#FFDD15"/>
<stop offset="0.0383" stop-color="#FFD915"/>
<stop offset="0.073" stop-color="#FDCE17"/>
<stop offset="0.1064" stop-color="#FBBC19"/>
<stop offset="0.1388" stop-color="#F8A21C"/>
<stop offset="0.1552" stop-color="#F6921E"/>
<stop offset="0.2065" stop-color="#F68E1F"/>
<stop offset="0.253" stop-color="#F48321"/>
<stop offset="0.2976" stop-color="#F27124"/>
<stop offset="0.3369" stop-color="#F05A28"/>
<stop offset="0.3827" stop-color="#F05628"/>
<stop offset="0.4242" stop-color="#EF4B27"/>
<stop offset="0.4641" stop-color="#EE3926"/>
<stop offset="0.5027" stop-color="#EC1F24"/>
<stop offset="0.5067" stop-color="#EC1C24"/>
<stop offset="0.5436" stop-color="#E81E27"/>
<stop offset="0.577" stop-color="#DD2531"/>
<stop offset="0.6091" stop-color="#CB3040"/>
<stop offset="0.6405" stop-color="#B14057"/>
<stop offset="0.6712" stop-color="#8F5573"/>
<stop offset="0.7015" stop-color="#666E97"/>
<stop offset="0.7309" stop-color="#368CBF"/>
<stop offset="0.7597" stop-color="#00ADEE"/>
<stop offset="0.8068" stop-color="#01A9EB"/>
<stop offset="0.8495" stop-color="#059EE3"/>
<stop offset="0.8905" stop-color="#0C8CD5"/>
<stop offset="0.9305" stop-color="#1672C2"/>
<stop offset="0.9693" stop-color="#2251A9"/>
<stop offset="1" stop-color="#2E3191"/>
</linearGradient>
<clipPath id="clip0">
<rect width="182" height="43" fill="white"/>
</clipPath>
</defs>
</svg>
