<svg width="317" height="91" viewBox="0 0 317 91" fill="none" xmlns="http://www.w3.org/2000/svg">
<g clip-path="url(#clip0)">
<path d="M5.7373 88.7083V80.8192H2.70514V78.8125H10.9693V80.8192H7.9272V88.7083H5.7373Z" fill="url(#paint0_linear)"/>
<path d="M12.6439 88.7083V78.8125H14.8338V82.7275H18.8767V78.8125H21.0666V88.7083H18.8767V84.7342H14.8338V88.7083H12.6439Z" fill="url(#paint1_linear)"/>
<path d="M23.4645 88.7083V78.8125H30.9855V80.7503H25.6445V82.757H30.3414V84.6949H25.6445V86.7704H31.0549V88.7083H23.4645Z" fill="url(#paint2_linear)"/>
<path d="M37.2778 88.7083V78.8125H39.4677V82.7275H43.5106V78.8125H45.7005V88.7083H43.5106V84.7342H39.4677V88.7083H37.2778Z" fill="url(#paint3_linear)"/>
<path d="M56.7392 87.3902C55.7284 88.3837 54.4601 88.8853 52.944 88.8853C51.4279 88.8853 50.1695 88.3935 49.1588 87.4098C48.1579 86.4262 47.6526 85.2162 47.6526 83.7997V83.7702C47.6526 82.3439 48.1579 81.134 49.1687 80.1405C50.1794 79.1469 51.4477 78.6453 52.9638 78.6453C54.4799 78.6453 55.7384 79.1371 56.7491 80.1208C57.7499 81.1045 58.2553 82.3144 58.2553 83.7309V83.7604C58.2553 85.1867 57.7499 86.3966 56.7392 87.3902ZM50.8136 85.9638C51.3883 86.5639 52.1017 86.8688 52.9737 86.8688C53.8457 86.8688 54.5691 86.5737 55.124 85.9737C55.6888 85.3835 55.9663 84.6457 55.9663 83.7801V83.7505C55.9663 82.8849 55.6789 82.1472 55.1141 81.5471C54.5394 80.9471 53.8259 80.6421 52.944 80.6421C52.072 80.6421 51.3586 80.9372 50.7938 81.5373C50.2289 82.1275 49.9515 82.8652 49.9515 83.7309V83.7604C49.9614 84.626 50.2388 85.3638 50.8136 85.9638Z" fill="url(#paint4_linear)"/>
<path d="M60.2073 88.7083V78.8125H62.5755L65.1915 82.9931L67.8174 78.8125H70.1857V88.7083H68.0057V82.2455L65.2014 86.4753H65.142L62.3674 82.2947V88.7181H60.2073V88.7083Z" fill="url(#paint5_linear)"/>
<path d="M72.5738 88.7083V78.8125H80.0947V80.7503H74.7538V82.757H79.4506V84.6949H74.7538V86.7704H80.1641V88.7083H72.5738Z" fill="url(#paint6_linear)"/>
<path d="M95.0276 87.3902C94.0169 88.3837 92.7485 88.8853 91.2325 88.8853C89.7164 88.8853 88.4579 88.3935 87.4472 87.4098C86.4464 86.4262 85.941 85.2162 85.941 83.7997V83.7702C85.941 82.3439 86.4464 81.134 87.4571 80.1405C88.4678 79.1469 89.7362 78.6453 91.2523 78.6453C92.7684 78.6453 94.0268 79.1371 95.0375 80.1208C96.0383 81.1045 96.5437 82.3144 96.5437 83.7309V83.7604C96.5437 85.1867 96.0383 86.3966 95.0276 87.3902ZM89.0921 85.9638C89.6668 86.5639 90.3803 86.8688 91.2523 86.8688C92.1243 86.8688 92.8476 86.5737 93.4025 85.9737C93.9674 85.3835 94.2448 84.6457 94.2448 83.7801V83.7505C94.2448 82.8849 93.9574 82.1472 93.3926 81.5471C92.8278 80.9471 92.1045 80.6421 91.2225 80.6421C90.3506 80.6421 89.6371 80.9372 89.0723 81.5373C88.5075 82.1275 88.23 82.8652 88.23 83.7309V83.7604C88.2399 84.626 88.5273 85.3638 89.0921 85.9638Z" fill="url(#paint7_linear)"/>
<path d="M98.4958 88.7083V78.8125H106.086V80.7897H100.686V82.8948H105.442V84.8719H100.686V88.7083H98.4958Z" fill="url(#paint8_linear)"/>
<path d="M112.111 88.7083V78.8125H119.701V80.7897H114.301V82.8948H119.057V84.8719H114.301V88.7083H112.111Z" fill="url(#paint9_linear)"/>
<path d="M119.453 88.7083L123.724 78.7437H125.746L130.016 88.7083H127.727L126.816 86.4852H122.604L121.693 88.7083H119.453ZM123.387 84.567H126.033L124.705 81.3602L123.387 84.567Z" fill="url(#paint10_linear)"/>
<path d="M131.562 88.7083V78.8125H133.584L138.261 84.9113V78.8125H140.421V88.7083H138.558L133.732 82.4128V88.7083H131.562Z" fill="url(#paint11_linear)"/>
<path d="M145.138 88.7083V80.8192H142.105V78.8125H150.37V80.8192H147.337V88.7083H145.138Z" fill="url(#paint12_linear)"/>
<path d="M149.904 88.7083L154.175 78.7437H156.196L160.467 88.7083H158.178L157.266 86.4852H153.055L152.143 88.7083H149.904ZM153.838 84.567H156.483L155.156 81.3602L153.838 84.567Z" fill="url(#paint13_linear)"/>
<path d="M165.421 88.8559C163.786 88.8559 162.379 88.3247 161.19 87.2721L162.488 85.7278C163.469 86.5245 164.46 86.9279 165.461 86.9279C165.907 86.9279 166.254 86.8492 166.511 86.6819C166.769 86.5147 166.898 86.2885 166.898 85.9934V85.9639C166.898 85.6786 166.759 85.4523 166.502 85.2753C166.234 85.0982 165.699 84.9113 164.896 84.7047C164.322 84.567 163.866 84.4195 163.519 84.2916C163.172 84.1539 162.835 83.9768 162.518 83.7506C162.201 83.5243 161.963 83.2391 161.824 82.9046C161.676 82.5702 161.606 82.1669 161.606 81.6849V81.6553C161.606 80.7602 161.933 80.0421 162.578 79.4913C163.222 78.9404 164.064 78.6748 165.094 78.6748C166.511 78.6748 167.74 79.0978 168.8 79.9339L167.661 81.5767C166.72 80.9274 165.857 80.6028 165.065 80.6028C164.658 80.6028 164.341 80.6815 164.113 80.8389C163.886 80.9963 163.777 81.2029 163.777 81.4586V81.4881C163.777 81.8127 163.915 82.0488 164.193 82.2062C164.47 82.3636 165.045 82.5603 165.927 82.7866C167.007 83.0718 167.81 83.426 168.315 83.8686C168.83 84.3113 169.088 84.9408 169.088 85.7573V85.7868C169.088 86.7508 168.751 87.4984 168.087 88.0394C167.403 88.5804 166.521 88.8559 165.421 88.8559Z" fill="url(#paint14_linear)"/>
<path d="M173.368 88.7083V84.8031L169.534 78.8125H172.1L174.478 82.7866L176.896 78.8125H179.383L175.548 84.7637V88.7083H173.368Z" fill="url(#paint15_linear)"/>
<path d="M178.264 91.0002L178.075 90.1051C179.086 89.9969 179.542 89.5346 179.472 88.7083H178.591V86.4458H180.899V88.3541C180.899 89.2591 180.681 89.9182 180.235 90.3412C179.799 90.7642 179.136 90.9806 178.264 91.0002Z" fill="url(#paint16_linear)"/>
<path d="M190.798 88.8559C189.163 88.8559 187.756 88.3247 186.567 87.2721L187.865 85.7278C188.846 86.5245 189.837 86.9279 190.838 86.9279C191.284 86.9279 191.631 86.8492 191.888 86.6819C192.146 86.5147 192.275 86.2885 192.275 85.9934V85.9639C192.275 85.6786 192.136 85.4523 191.879 85.2753C191.621 85.0982 191.076 84.9113 190.273 84.7047C189.699 84.567 189.243 84.4195 188.896 84.2916C188.549 84.1539 188.212 83.9768 187.895 83.7506C187.578 83.5243 187.34 83.2391 187.202 82.9046C187.053 82.5702 186.984 82.1669 186.984 81.6849V81.6553C186.984 80.7602 187.31 80.0421 187.955 79.4913C188.609 78.9404 189.441 78.6748 190.471 78.6748C191.888 78.6748 193.117 79.0978 194.177 79.9339L193.038 81.5767C192.097 80.9274 191.234 80.6028 190.442 80.6028C190.035 80.6028 189.718 80.6815 189.49 80.8389C189.263 80.9963 189.154 81.2029 189.154 81.4586V81.4881C189.154 81.8127 189.292 82.0488 189.57 82.2062C189.847 82.3636 190.422 82.5603 191.304 82.7866C192.384 83.0718 193.187 83.426 193.692 83.8686C194.207 84.3113 194.465 84.9408 194.465 85.7573V85.7868C194.465 86.7508 194.128 87.4984 193.464 88.0394C192.78 88.5804 191.898 88.8559 190.798 88.8559Z" fill="url(#paint17_linear)"/>
<path d="M201.035 88.8755C199.568 88.8755 198.359 88.3837 197.378 87.4098C196.407 86.4262 195.921 85.2261 195.921 83.7899V83.7604C195.921 82.3242 196.407 81.1143 197.388 80.1306C198.369 79.1371 199.608 78.6453 201.124 78.6453C202.006 78.6453 202.759 78.7731 203.373 79.0387C203.987 79.2945 204.552 79.6781 205.058 80.1798L203.66 81.7734C202.838 81.0258 201.986 80.652 201.114 80.652C200.291 80.652 199.598 80.9471 199.053 81.5471C198.498 82.1472 198.23 82.8751 198.23 83.7309V83.7604C198.23 84.626 198.508 85.3638 199.053 85.9638C199.598 86.5639 200.291 86.8688 201.124 86.8688C201.659 86.8688 202.115 86.7704 202.501 86.5835C202.887 86.3966 203.304 86.1015 203.74 85.7081L205.137 87.1049C204.582 87.6853 203.997 88.1279 203.363 88.423C202.719 88.728 201.946 88.8755 201.035 88.8755Z" fill="url(#paint18_linear)"/>
<path d="M206.98 88.7083V78.8125H209.17V88.7083H206.98Z" fill="url(#paint19_linear)"/>
<path d="M211.181 85.3638V83.2981H215.571V85.3638H211.181Z" fill="url(#paint20_linear)"/>
<path d="M217.474 88.7083V78.8125H225.064V80.7897H219.664V82.8948H224.42V84.8719H219.664V88.7083H217.474Z" fill="url(#paint21_linear)"/>
<path d="M226.917 88.7083V78.8125H229.107V88.7083H226.917Z" fill="url(#paint22_linear)"/>
<path d="M242.583 88.905L241.434 87.7443C240.532 88.482 239.561 88.846 238.51 88.846C237.539 88.846 236.747 88.5804 236.113 88.0591C235.478 87.5377 235.161 86.8492 235.161 85.9835V85.954C235.161 84.7244 235.805 83.8194 237.094 83.2391C236.628 82.5898 236.4 81.9308 236.4 81.2619V81.2324C236.4 80.5143 236.677 79.9044 237.222 79.3929C237.767 78.8814 238.501 78.6256 239.422 78.6256C240.254 78.6256 240.938 78.8617 241.453 79.3437C241.969 79.8159 242.226 80.4159 242.226 81.1143V81.1438C242.226 82.3341 241.533 83.1899 240.136 83.7309L241.463 85.049C241.78 84.5572 242.098 83.9965 242.434 83.3571L244.04 84.2326C243.544 85.1179 243.108 85.8163 242.732 86.3278L244.198 87.7836L242.583 88.905ZM238.768 87.0656C239.244 87.0656 239.719 86.8787 240.205 86.495L238.292 84.5769C237.678 84.9015 237.371 85.3343 237.371 85.8753V85.9048C237.371 86.2491 237.5 86.5344 237.767 86.7508C238.025 86.9672 238.352 87.0656 238.768 87.0656ZM238.996 82.5997C239.452 82.4324 239.789 82.2455 239.997 82.039C240.215 81.8324 240.314 81.5865 240.314 81.2815V81.252C240.314 80.9668 240.225 80.7405 240.056 80.5831C239.888 80.4159 239.66 80.3372 239.373 80.3372C239.075 80.3372 238.847 80.4257 238.669 80.6126C238.491 80.7995 238.401 81.0356 238.401 81.3406V81.3701C238.411 81.7537 238.6 82.157 238.996 82.5997Z" fill="url(#paint23_linear)"/>
<path d="M250.055 88.7083V78.8125H252.244V82.7275H256.287V78.8125H258.477V88.7083H256.287V84.7342H252.244V88.7083H250.055Z" fill="url(#paint24_linear)"/>
<path d="M269.516 87.3902C268.505 88.3837 267.237 88.8853 265.721 88.8853C264.205 88.8853 262.946 88.3935 261.935 87.4098C260.935 86.4262 260.429 85.2162 260.429 83.7997V83.7702C260.429 82.3439 260.935 81.134 261.945 80.1405C262.956 79.1469 264.224 78.6453 265.74 78.6453C267.257 78.6453 268.515 79.1371 269.526 80.1208C270.527 81.1045 271.032 82.3144 271.032 83.7309V83.7604C271.032 85.1867 270.527 86.3966 269.516 87.3902ZM263.59 85.9638C264.165 86.5639 264.878 86.8688 265.75 86.8688C266.622 86.8688 267.346 86.5737 267.901 85.9737C268.465 85.3835 268.743 84.6457 268.743 83.7801V83.7505C268.743 82.8849 268.456 82.1472 267.891 81.5471C267.326 80.9471 266.603 80.6421 265.721 80.6421C264.849 80.6421 264.135 80.9372 263.57 81.5373C263.006 82.1275 262.728 82.8652 262.728 83.7309V83.7604C262.728 84.626 263.016 85.3638 263.59 85.9638Z" fill="url(#paint25_linear)"/>
<path d="M272.984 88.7083V78.8125H277.542C278.801 78.8125 279.772 79.1469 280.446 79.8158C281.02 80.3864 281.298 81.134 281.298 82.0783V82.1078C281.298 83.6227 280.584 84.6457 279.157 85.1769L281.595 88.7083H279.029L276.888 85.5408H275.164V88.7083H272.984ZM275.184 83.6227H277.403C277.929 83.6227 278.335 83.4948 278.632 83.239C278.929 82.9833 279.078 82.6488 279.078 82.2259V82.1963C279.078 81.734 278.929 81.3799 278.622 81.1438C278.315 80.9077 277.899 80.7799 277.354 80.7799H275.174V83.6227H275.184Z" fill="url(#paint26_linear)"/>
<path d="M283.289 88.7083V78.8125H287.848C289.106 78.8125 290.077 79.1469 290.751 79.8158C291.326 80.3864 291.603 81.134 291.603 82.0783V82.1078C291.603 83.6227 290.89 84.6457 289.463 85.1769L291.9 88.7083H289.334L287.194 85.5408H285.469V88.7083H283.289ZM285.479 83.6227H287.699C288.224 83.6227 288.63 83.4948 288.928 83.239C289.225 82.9833 289.374 82.6488 289.374 82.2259V82.1963C289.374 81.734 289.225 81.3799 288.918 81.1438C288.611 80.9077 288.194 80.7799 287.649 80.7799H285.469V83.6227H285.479Z" fill="url(#paint27_linear)"/>
<path d="M302.216 87.3902C301.205 88.3837 299.937 88.8853 298.42 88.8853C296.904 88.8853 295.646 88.3935 294.635 87.4098C293.634 86.4262 293.129 85.2162 293.129 83.7997V83.7702C293.129 82.3439 293.634 81.134 294.645 80.1405C295.656 79.1469 296.924 78.6453 298.44 78.6453C299.956 78.6453 301.215 79.1371 302.226 80.1208C303.226 81.1045 303.732 82.3144 303.732 83.7309V83.7604C303.732 85.1867 303.226 86.3966 302.216 87.3902ZM296.29 85.9638C296.865 86.5639 297.578 86.8688 298.45 86.8688C299.322 86.8688 300.046 86.5737 300.6 85.9737C301.165 85.3835 301.443 84.6457 301.443 83.7801V83.7505C301.443 82.8849 301.155 82.1472 300.591 81.5471C300.026 80.9471 299.302 80.6421 298.42 80.6421C297.548 80.6421 296.835 80.9372 296.27 81.5373C295.705 82.1275 295.428 82.8652 295.428 83.7309V83.7604C295.438 84.626 295.715 85.3638 296.29 85.9638Z" fill="url(#paint28_linear)"/>
<path d="M305.684 88.7083V78.8125H310.242C311.5 78.8125 312.472 79.1469 313.145 79.8158C313.72 80.3864 313.998 81.134 313.998 82.0783V82.1078C313.998 83.6227 313.284 84.6457 311.857 85.1769L314.295 88.7083H311.728L309.588 85.5408H307.864V88.7083H305.684ZM307.884 83.6227H310.103C310.628 83.6227 311.035 83.4948 311.332 83.239C311.629 82.9833 311.778 82.6488 311.778 82.2259V82.1963C311.778 81.734 311.629 81.3799 311.322 81.1438C311.015 80.9077 310.599 80.7799 310.054 80.7799H307.874V83.6227H307.884Z" fill="url(#paint29_linear)"/>
<path d="M24.3465 28.8909C23.752 29.6876 23.3259 30.2778 23.0583 30.6516C22.4638 31.4484 22.008 32.0681 21.6909 32.4911H9.91895V50.335H24.3465V57.5355H7.25342H2.65562V32.4911C2.06108 31.6943 1.60526 31.0746 1.28817 30.6516C0.693633 29.8549 0.267544 29.2646 0 28.8909C0.594542 28.0351 1.02063 27.3957 1.28817 26.9727C1.88272 26.1759 2.33853 25.5857 2.65562 25.2119V0.000244141H24.3366V7.27946H9.91895V25.2021H21.6909C22.2854 25.9988 22.7412 26.589 23.0583 26.9628C23.643 27.8186 24.079 28.458 24.3465 28.8909Z" fill="url(#paint30_linear)"/>
<path d="M54.9555 26.9727C55.55 27.8285 55.9761 28.4679 56.2437 28.8909C55.6491 29.6877 55.223 30.2779 54.9555 30.6517C54.361 31.4484 53.9349 32.0682 53.6673 32.4911C51.6261 43.646 50.0902 51.9876 49.0695 57.5356H43.1043H41.4891C39.4479 46.3807 37.9119 38.0391 36.8913 32.4911C36.2968 31.6944 35.8707 31.0746 35.6031 30.6517C35.0086 29.8549 34.5528 29.2647 34.2357 28.8909C34.8798 28.0351 35.3356 27.3957 35.6031 26.9727C35.7121 26.8153 35.7914 26.7071 35.841 26.6481C33.7006 14.8538 32.0854 6.03021 31.0153 0.157654H38.0309C41.3603 19.2017 43.8574 33.5043 45.532 43.0558C48.6434 24.0118 50.9622 9.70916 52.4683 0.157654H59.5632C57.4129 11.9519 55.7978 20.7755 54.7276 26.6481C54.8168 26.8055 54.896 26.9137 54.9555 26.9727Z" fill="url(#paint31_linear)"/>
<path d="M89.2903 28.8909C88.6958 29.6876 88.2697 30.2778 88.0021 30.6516C87.4076 31.4484 86.9518 32.0681 86.6347 32.4911H74.8628V50.335H89.2903V57.5355H72.2071H67.6094V32.4911C67.0148 31.6943 66.559 31.0746 66.2419 30.6516C65.6474 29.8549 65.2213 29.2646 64.9537 28.8909C65.5483 28.0351 65.9744 27.3957 66.2419 26.9727C66.8364 26.1759 67.2923 25.5857 67.6094 25.2119V0.000244141H89.2903V7.27946H74.8628V25.2021H86.6347C87.2292 25.9988 87.6851 26.589 88.0021 26.9628C88.5967 27.8186 89.0228 28.458 89.2903 28.8909Z" fill="url(#paint32_linear)"/>
<path d="M121.594 30.7303L121.108 31.4484C120.791 31.8714 120.514 32.2452 120.306 32.5698V32.8846V34.97C120.306 37.1046 119.602 38.9441 118.205 40.4884C116.857 42.0328 115.173 42.9476 113.131 43.2132L114.261 45.3773C114.955 46.8725 115.797 48.5546 116.758 50.4236C117.402 51.7023 118.017 52.9615 118.611 54.1812L120.306 57.5454H119.097H117.561H113.042L111.913 55.3813C111.16 53.8861 110.327 52.204 109.416 50.335L107.483 46.4987C106.839 45.2691 106.274 44.1772 105.789 43.2132V45.3773V50.4236V54.1812V57.5454H103.054H98.6147V54.1025V46.1839V40.2622V34.9798V34.0158V32.4911L98.1292 31.773C97.7526 31.3501 97.4554 30.9763 97.2473 30.6517L96.7617 30.0123C96.4347 29.5303 96.1672 29.1565 95.9591 28.8909L96.5239 28.1728C96.8509 27.7498 97.1185 27.376 97.3266 27.0514L97.8914 26.412C98.2184 25.93 98.4859 25.5562 98.694 25.2906V22.6544V16.7228V12.2372V8.40087V5.28261V0.157654H101.756H106.919H108.048H109.822H110.06H112.071C114.33 0.157654 116.263 0.954432 117.878 2.55783C119.493 4.16122 120.296 6.1089 120.296 8.40087V10.9584V16.8802V21.3657V25.2906L120.781 25.93C121.098 26.353 121.376 26.7268 121.584 27.0514L122.149 27.7695C122.476 28.1925 122.743 28.5663 122.951 28.8909L122.466 29.5303C122.159 30.0123 121.861 30.4057 121.594 30.7303ZM113.052 10.4076C113.052 9.55177 112.755 8.83369 112.17 8.24348C111.526 7.65328 110.803 7.36801 109.99 7.36801H108.454H105.878V11.6077V11.765V21.769V29.3729V36.0127H106.116H106.354H109.99C110.852 36.0127 111.576 35.6881 112.17 35.0487C112.765 34.4585 113.052 33.7699 113.052 32.9633V31.9993V25.1922V19.1131V10.4076Z" fill="url(#paint33_linear)"/>
<path d="M154.432 20.0082L153.947 20.6476L153.144 21.8477L150.399 21.769H145.881V21.2083V17.7654V14.6472V10.1616C145.881 9.41403 145.613 8.74513 145.078 8.16476C144.543 7.63357 143.869 7.36798 143.067 7.36798H142.908H141.541C140.738 7.36798 140.064 7.63357 139.529 8.16476C138.994 8.75496 138.727 9.42386 138.727 10.1616V10.6436V13.7619V16.5654V20.5689C138.727 21.4739 138.964 22.3297 139.45 23.1265C139.935 23.9233 140.609 24.484 141.461 24.8086L141.788 25.0447C142.056 25.1529 142.968 25.5562 144.533 26.2447C145.177 26.5103 145.98 26.8841 146.951 27.3661C147.922 27.7891 149.072 28.3301 150.419 28.9695C151.281 29.3433 151.955 29.904 152.431 30.6516C152.916 31.4484 153.154 32.3042 153.154 33.2092V33.9273V38.8063V43.3706V49.6956C153.154 51.8302 152.371 53.6697 150.816 55.214C149.26 56.7584 147.407 57.5355 145.257 57.5355H144.93H144.523H139.44C137.24 57.5355 135.377 56.7584 133.881 55.214C132.325 53.6697 131.542 51.8302 131.542 49.6956V47.3741V43.4493L131.057 42.7312C130.68 42.3082 130.383 41.9344 130.175 41.6098L129.689 40.9704C129.363 40.4884 129.095 40.1146 128.887 39.849L129.372 39.1309L130.175 37.9308L130.74 37.2914C131.057 36.8094 131.354 36.4356 131.622 36.1701L134.367 36.0914H138.885V36.5734V40.0162V43.2132V47.6102C138.885 48.407 139.153 49.0759 139.688 49.6071C140.223 50.1383 140.897 50.4039 141.699 50.4039H141.858H143.225C144.028 50.4039 144.702 50.1383 145.237 49.6071C145.772 49.0759 146.039 48.407 146.039 47.6102V47.2167V44.1772C146.039 43.4886 146.01 42.6033 145.96 41.5409V37.6161C145.96 36.7111 145.722 35.8848 145.237 35.1372C144.751 34.3404 144.077 33.7502 143.225 33.3764L142.819 33.219C142.601 33.0616 141.719 32.6288 140.163 31.9402C139.519 31.6255 138.736 31.2517 137.825 30.8188C136.854 30.3959 135.704 29.8548 134.357 29.2155C133.495 28.7925 132.821 28.2023 132.345 27.4547C131.86 26.6579 131.622 25.8021 131.622 24.8971V24.179V19.1426V14.657V8.16476C131.622 5.98099 132.405 4.11201 133.96 2.56763C135.466 1.02326 137.319 0.246155 139.519 0.246155H140.243H145.326C147.476 0.246155 149.329 1.02326 150.885 2.56763C152.441 4.11201 153.223 5.98099 153.223 8.16476V10.4862V14.4898L153.709 15.2079C154.026 15.6309 154.303 16.0047 154.512 16.3293L155.076 16.9687C155.403 17.4507 155.671 17.8245 155.879 18.0901L155.314 18.8081C154.997 19.2901 154.7 19.6836 154.432 20.0082Z" fill="url(#paint34_linear)"/>
<path d="M179.205 21.769V21.287V18.0901V15.1292V10.9682C179.205 10.0042 178.858 9.17795 178.155 8.48937C177.401 7.74178 176.539 7.36798 175.578 7.36798C174.558 7.36798 173.695 7.74178 173.002 8.48937C172.298 9.18778 171.951 10.0141 171.951 10.9682V11.5289V15.2079V18.4934V23.2937V32.9731V46.8134C171.951 47.7774 172.298 48.6234 173.002 49.371C173.695 50.0694 174.558 50.4137 175.578 50.4137C176.549 50.4137 177.401 50.0694 178.155 49.371C178.848 48.6234 179.205 47.7676 179.205 46.8134V45.1314V41.3737V38.5702V36.0914H181.95H186.468V36.6521V40.7343V44.4133V49.6956C186.468 51.8302 185.685 53.6697 184.13 55.214C182.574 56.7584 180.721 57.5355 178.571 57.5355H178.244H177.837H172.754C170.554 57.5355 168.691 56.7584 167.195 55.214C165.639 53.6697 164.857 51.8302 164.857 49.6956V47.0594V40.9802V36.416V32.4124L164.371 31.773C164.054 31.35 163.777 30.9762 163.568 30.6516L163.083 30.0122C162.766 29.5302 162.488 29.1564 162.28 28.8908L162.845 28.1728C163.172 27.7498 163.44 27.376 163.648 27.0514L164.133 26.412C164.46 25.989 164.728 25.6349 164.936 25.3693V24.5725V19.4475V14.8046V8.16476C164.936 5.98099 165.719 4.11201 167.274 2.56763C168.781 1.02326 170.634 0.246155 172.833 0.246155H173.557H178.63C180.78 0.246155 182.633 1.02326 184.189 2.56763C185.745 4.11201 186.528 5.98099 186.528 8.16476V10.2502V14.9718V18.5721V21.769H183.783H179.205Z" fill="url(#paint35_linear)"/>
<path d="M222.071 57.5356H220.863H219.327H214.65L214.164 54.8993C213.837 53.0893 213.569 51.5942 213.361 50.4137H211.588H207.634H204.651H202.075L201.51 53.05C201.183 54.86 200.916 56.3552 200.708 57.5356H197.883H193.206L193.93 53.4533C194.415 50.7285 194.95 47.6103 195.545 44.0887C195.921 41.7967 196.328 39.4752 196.754 37.1243C197.18 34.7733 197.537 32.6977 197.804 30.8779L197.725 30.7205C197.675 30.6123 197.616 30.5336 197.566 30.4844L197.081 29.845C196.754 29.363 196.486 28.9892 196.278 28.7237L196.764 28.0056C197.091 27.5826 197.358 27.2088 197.566 26.8842L198.052 26.2448C198.428 25.7628 198.726 25.3693 198.944 25.0447L199.588 21.287C200.073 18.7295 200.608 15.8178 201.203 12.5618C201.58 10.319 201.956 8.10577 202.333 5.922C202.709 3.73824 203.056 1.81023 203.383 0.157654H206.603H211.925L212.648 4.00383C213.074 6.56139 213.589 9.50259 214.184 12.8077C214.61 14.9915 215.016 17.1851 215.393 19.3689C215.769 21.5526 216.116 23.5003 216.443 25.2119L216.929 25.8513C217.246 26.2743 217.523 26.6481 217.731 26.9727L218.217 27.6121C218.544 28.0941 218.831 28.4876 219.109 28.8122L218.544 29.4516C218.217 29.8844 217.949 30.2484 217.741 30.573L217.662 30.7304L217.424 30.9664L218.147 35.0487C218.633 37.7735 219.168 40.8622 219.763 44.3346L221.051 51.3777C221.447 53.7287 221.794 55.7748 222.071 57.5356ZM211.915 43.1345L211.271 38.7375C210.835 35.8553 210.359 32.5502 209.824 28.8122L208.694 21.287C208.318 18.7787 207.971 16.5654 207.644 14.6472L207 19.0443C206.574 21.9264 206.058 25.2611 205.464 29.0483C205.087 31.5075 204.711 33.9863 204.334 36.4947C203.958 39.0031 203.631 41.2164 203.363 43.1345H204.81H206.584H211.915Z" fill="url(#paint36_linear)"/>
<path d="M252.413 30.6517L251.927 31.3697C251.6 31.7927 251.333 32.1665 251.125 32.4911V32.8157V34.9798C251.125 37.1144 250.421 38.9539 249.034 40.4983C247.686 42.0426 246.002 42.9575 243.96 43.223H241.216H236.697V45.3871V50.4334V54.1911V57.5552H235.488H233.952H229.523V54.1124V46.1938V40.272V34.9897V34.0257V32.501L229.037 31.7829C228.661 31.3599 228.364 30.9861 228.156 30.6615L227.67 30.0221C227.353 29.5401 227.075 29.1663 226.867 28.9007L227.353 28.1826L228.156 26.9825L228.72 26.3431C229.047 25.8611 229.315 25.4873 229.523 25.2218V22.5855V16.7228V12.2372V8.40087V5.28261V0.157654H232.585H237.747H238.877H240.651H240.889H242.9C245.159 0.157654 247.092 0.954432 248.707 2.55783C250.322 4.16122 251.125 6.1089 251.125 8.40087V10.9584V16.8015V21.287V25.2119L251.61 25.8513C251.937 26.2743 252.205 26.6481 252.413 26.9727L252.978 27.6908L253.78 28.8909L253.295 29.5303C252.978 29.9532 252.68 30.327 252.413 30.6517ZM243.951 10.4076C243.951 9.55177 243.653 8.83369 243.059 8.24348C242.415 7.65328 241.691 7.36801 240.879 7.36801H239.343H236.767V11.6077V11.765V21.769V29.3729V36.0127H237.004H237.242H240.869C241.731 36.0127 242.454 35.6881 243.049 35.0487C243.643 34.4585 243.941 33.7699 243.941 32.9633V31.9993V25.1922V19.1131V10.4076H243.951Z" fill="url(#paint37_linear)"/>
<path d="M284.796 28.8909C284.201 29.6876 283.775 30.2778 283.507 30.6516C282.913 31.4484 282.457 32.0681 282.14 32.4911H270.368V50.335H284.796V57.5355H267.703H263.105V32.4911C262.51 31.6943 262.054 31.0746 261.737 30.6516C261.143 29.8549 260.717 29.2646 260.449 28.8909C261.044 28.0351 261.47 27.3957 261.737 26.9727C262.332 26.1759 262.788 25.5857 263.105 25.2119V0.000244141H284.786V7.27946H270.358V25.2021H282.13C282.725 25.9988 283.18 26.589 283.498 26.9628C284.092 27.8186 284.518 28.458 284.796 28.8909Z" fill="url(#paint38_linear)"/>
<path d="M315.553 20.0082L315.068 20.6476L314.265 21.8477L311.52 21.769H307.002V21.2083V17.7654V14.6472V10.1616C307.002 9.41403 306.734 8.74513 306.199 8.16476C305.664 7.63357 304.99 7.36798 304.188 7.36798H304.029H302.662C301.859 7.36798 301.185 7.63357 300.65 8.16476C300.115 8.75496 299.847 9.42386 299.847 10.1616V10.6436V13.7619V16.5654V20.5689C299.847 21.4739 300.085 22.3297 300.571 23.1265C301.056 23.9233 301.73 24.484 302.582 24.8086L302.899 25.0447C303.167 25.1529 304.079 25.5562 305.644 26.2447C306.288 26.5103 307.091 26.8841 308.062 27.3661C309.033 27.7891 310.183 28.3301 311.53 28.9695C312.392 29.3433 313.066 29.904 313.542 30.6516C314.027 31.4484 314.265 32.3042 314.265 33.2092V33.9273V38.8063V43.3706V49.6956C314.265 51.8302 313.482 53.6697 311.927 55.214C310.371 56.7584 308.518 57.5355 306.368 57.5355H306.051H305.644H300.571C298.371 57.5355 296.508 56.7584 295.012 55.214C293.456 53.6697 292.673 51.8302 292.673 49.6956V47.3741V43.4493L292.188 42.7312C291.811 42.3082 291.514 41.9344 291.306 41.6098L290.82 40.9704C290.503 40.4884 290.226 40.1146 290.018 39.849L290.503 39.1309L291.306 37.9308L291.871 37.2914C292.198 36.8094 292.485 36.4356 292.763 36.1701L295.507 36.0914H300.026V36.5734V40.0162V43.2132V47.6102C300.026 48.407 300.293 49.0759 300.828 49.6071C301.364 50.1383 302.037 50.4039 302.84 50.4039H302.999H304.366C305.169 50.4039 305.842 50.1383 306.378 49.6071C306.913 49.0759 307.18 48.407 307.18 47.6102V47.2167V44.1772C307.18 43.4886 307.15 42.6033 307.101 41.5409V37.6161C307.101 36.7111 306.863 35.8848 306.378 35.1372C305.892 34.3404 305.218 33.7502 304.366 33.3764L303.96 33.219C303.742 33.0616 302.86 32.6288 301.304 31.9402C300.66 31.6255 299.877 31.2517 298.966 30.8188C297.994 30.3959 296.845 29.8548 295.497 29.2155C294.635 28.7925 293.961 28.2023 293.486 27.4547C293 26.6579 292.763 25.8021 292.763 24.8971V24.179V19.1426V14.657V8.16476C292.763 5.98099 293.545 4.11201 295.101 2.56763C296.607 1.02326 298.46 0.246155 300.66 0.246155H301.383H306.457C308.607 0.246155 310.46 1.02326 312.016 2.56763C313.572 4.11201 314.354 5.98099 314.354 8.16476V10.4862V14.4898L314.84 15.2079C315.167 15.6309 315.434 16.0047 315.642 16.3293L316.207 16.9687C316.524 17.4507 316.802 17.8245 317.01 18.0901L316.445 18.8081C316.118 19.2901 315.821 19.6836 315.553 20.0082Z" fill="url(#paint39_linear)"/>
<path d="M314.305 66.5657H2.70514V71.189H314.305V66.5657Z" fill="url(#paint40_linear)"/>
</g>
<defs>
<linearGradient id="paint0_linear" x1="6.83077" y1="78.8127" x2="6.83077" y2="88.7098" gradientUnits="userSpaceOnUse">
<stop stop-color="white"/>
<stop offset="0.2152" stop-color="#FCFBFB"/>
<stop offset="0.4105" stop-color="#F2F0F0"/>
<stop offset="0.598" stop-color="#E2DEDE"/>
<stop offset="0.7808" stop-color="#CBC4C4"/>
<stop offset="0.9586" stop-color="#AEA3A3"/>
<stop offset="1" stop-color="#A69A9A"/>
</linearGradient>
<linearGradient id="paint1_linear" x1="16.8576" y1="78.8127" x2="16.8576" y2="88.7098" gradientUnits="userSpaceOnUse">
<stop stop-color="white"/>
<stop offset="0.2152" stop-color="#FCFBFB"/>
<stop offset="0.4105" stop-color="#F2F0F0"/>
<stop offset="0.598" stop-color="#E2DEDE"/>
<stop offset="0.7808" stop-color="#CBC4C4"/>
<stop offset="0.9586" stop-color="#AEA3A3"/>
<stop offset="1" stop-color="#A69A9A"/>
</linearGradient>
<linearGradient id="paint2_linear" x1="27.261" y1="78.8127" x2="27.261" y2="88.7098" gradientUnits="userSpaceOnUse">
<stop stop-color="white"/>
<stop offset="0.2152" stop-color="#FCFBFB"/>
<stop offset="0.4105" stop-color="#F2F0F0"/>
<stop offset="0.598" stop-color="#E2DEDE"/>
<stop offset="0.7808" stop-color="#CBC4C4"/>
<stop offset="0.9586" stop-color="#AEA3A3"/>
<stop offset="1" stop-color="#A69A9A"/>
</linearGradient>
<linearGradient id="paint3_linear" x1="41.4959" y1="78.8127" x2="41.4959" y2="88.7098" gradientUnits="userSpaceOnUse">
<stop stop-color="white"/>
<stop offset="0.2152" stop-color="#FCFBFB"/>
<stop offset="0.4105" stop-color="#F2F0F0"/>
<stop offset="0.598" stop-color="#E2DEDE"/>
<stop offset="0.7808" stop-color="#CBC4C4"/>
<stop offset="0.9586" stop-color="#AEA3A3"/>
<stop offset="1" stop-color="#A69A9A"/>
</linearGradient>
<linearGradient id="paint4_linear" x1="52.9614" y1="78.6431" x2="52.9614" y2="88.8792" gradientUnits="userSpaceOnUse">
<stop stop-color="white"/>
<stop offset="0.2152" stop-color="#FCFBFB"/>
<stop offset="0.4105" stop-color="#F2F0F0"/>
<stop offset="0.598" stop-color="#E2DEDE"/>
<stop offset="0.7808" stop-color="#CBC4C4"/>
<stop offset="0.9586" stop-color="#AEA3A3"/>
<stop offset="1" stop-color="#A69A9A"/>
</linearGradient>
<linearGradient id="paint5_linear" x1="65.1949" y1="78.8127" x2="65.1949" y2="88.7098" gradientUnits="userSpaceOnUse">
<stop stop-color="white"/>
<stop offset="0.2152" stop-color="#FCFBFB"/>
<stop offset="0.4105" stop-color="#F2F0F0"/>
<stop offset="0.598" stop-color="#E2DEDE"/>
<stop offset="0.7808" stop-color="#CBC4C4"/>
<stop offset="0.9586" stop-color="#AEA3A3"/>
<stop offset="1" stop-color="#A69A9A"/>
</linearGradient>
<linearGradient id="paint6_linear" x1="76.3683" y1="78.8127" x2="76.3683" y2="88.7098" gradientUnits="userSpaceOnUse">
<stop stop-color="white"/>
<stop offset="0.2152" stop-color="#FCFBFB"/>
<stop offset="0.4105" stop-color="#F2F0F0"/>
<stop offset="0.598" stop-color="#E2DEDE"/>
<stop offset="0.7808" stop-color="#CBC4C4"/>
<stop offset="0.9586" stop-color="#AEA3A3"/>
<stop offset="1" stop-color="#A69A9A"/>
</linearGradient>
<linearGradient id="paint7_linear" x1="91.2441" y1="78.6431" x2="91.2441" y2="88.8792" gradientUnits="userSpaceOnUse">
<stop stop-color="white"/>
<stop offset="0.2152" stop-color="#FCFBFB"/>
<stop offset="0.4105" stop-color="#F2F0F0"/>
<stop offset="0.598" stop-color="#E2DEDE"/>
<stop offset="0.7808" stop-color="#CBC4C4"/>
<stop offset="0.9586" stop-color="#AEA3A3"/>
<stop offset="1" stop-color="#A69A9A"/>
</linearGradient>
<linearGradient id="paint8_linear" x1="102.289" y1="78.8127" x2="102.289" y2="88.7098" gradientUnits="userSpaceOnUse">
<stop stop-color="white"/>
<stop offset="0.2152" stop-color="#FCFBFB"/>
<stop offset="0.4105" stop-color="#F2F0F0"/>
<stop offset="0.598" stop-color="#E2DEDE"/>
<stop offset="0.7808" stop-color="#CBC4C4"/>
<stop offset="0.9586" stop-color="#AEA3A3"/>
<stop offset="1" stop-color="#A69A9A"/>
</linearGradient>
<linearGradient id="paint9_linear" x1="115.904" y1="78.8127" x2="115.904" y2="88.7098" gradientUnits="userSpaceOnUse">
<stop stop-color="white"/>
<stop offset="0.2152" stop-color="#FCFBFB"/>
<stop offset="0.4105" stop-color="#F2F0F0"/>
<stop offset="0.598" stop-color="#E2DEDE"/>
<stop offset="0.7808" stop-color="#CBC4C4"/>
<stop offset="0.9586" stop-color="#AEA3A3"/>
<stop offset="1" stop-color="#A69A9A"/>
</linearGradient>
<linearGradient id="paint10_linear" x1="124.741" y1="78.7424" x2="124.741" y2="88.7098" gradientUnits="userSpaceOnUse">
<stop stop-color="white"/>
<stop offset="0.2152" stop-color="#FCFBFB"/>
<stop offset="0.4105" stop-color="#F2F0F0"/>
<stop offset="0.598" stop-color="#E2DEDE"/>
<stop offset="0.7808" stop-color="#CBC4C4"/>
<stop offset="0.9586" stop-color="#AEA3A3"/>
<stop offset="1" stop-color="#A69A9A"/>
</linearGradient>
<linearGradient id="paint11_linear" x1="135.992" y1="78.8127" x2="135.992" y2="88.7098" gradientUnits="userSpaceOnUse">
<stop stop-color="white"/>
<stop offset="0.2152" stop-color="#FCFBFB"/>
<stop offset="0.4105" stop-color="#F2F0F0"/>
<stop offset="0.598" stop-color="#E2DEDE"/>
<stop offset="0.7808" stop-color="#CBC4C4"/>
<stop offset="0.9586" stop-color="#AEA3A3"/>
<stop offset="1" stop-color="#A69A9A"/>
</linearGradient>
<linearGradient id="paint12_linear" x1="146.233" y1="78.8127" x2="146.233" y2="88.7098" gradientUnits="userSpaceOnUse">
<stop stop-color="white"/>
<stop offset="0.2152" stop-color="#FCFBFB"/>
<stop offset="0.4105" stop-color="#F2F0F0"/>
<stop offset="0.598" stop-color="#E2DEDE"/>
<stop offset="0.7808" stop-color="#CBC4C4"/>
<stop offset="0.9586" stop-color="#AEA3A3"/>
<stop offset="1" stop-color="#A69A9A"/>
</linearGradient>
<linearGradient id="paint13_linear" x1="155.19" y1="78.7424" x2="155.19" y2="88.7098" gradientUnits="userSpaceOnUse">
<stop stop-color="white"/>
<stop offset="0.2152" stop-color="#FCFBFB"/>
<stop offset="0.4105" stop-color="#F2F0F0"/>
<stop offset="0.598" stop-color="#E2DEDE"/>
<stop offset="0.7808" stop-color="#CBC4C4"/>
<stop offset="0.9586" stop-color="#AEA3A3"/>
<stop offset="1" stop-color="#A69A9A"/>
</linearGradient>
<linearGradient id="paint14_linear" x1="165.132" y1="78.6715" x2="165.132" y2="88.8509" gradientUnits="userSpaceOnUse">
<stop stop-color="white"/>
<stop offset="0.2152" stop-color="#FCFBFB"/>
<stop offset="0.4105" stop-color="#F2F0F0"/>
<stop offset="0.598" stop-color="#E2DEDE"/>
<stop offset="0.7808" stop-color="#CBC4C4"/>
<stop offset="0.9586" stop-color="#AEA3A3"/>
<stop offset="1" stop-color="#A69A9A"/>
</linearGradient>
<linearGradient id="paint15_linear" x1="174.46" y1="78.8127" x2="174.46" y2="88.7098" gradientUnits="userSpaceOnUse">
<stop stop-color="white"/>
<stop offset="0.2152" stop-color="#FCFBFB"/>
<stop offset="0.4105" stop-color="#F2F0F0"/>
<stop offset="0.598" stop-color="#E2DEDE"/>
<stop offset="0.7808" stop-color="#CBC4C4"/>
<stop offset="0.9586" stop-color="#AEA3A3"/>
<stop offset="1" stop-color="#A69A9A"/>
</linearGradient>
<linearGradient id="paint16_linear" x1="179.488" y1="86.4474" x2="179.488" y2="90.9999" gradientUnits="userSpaceOnUse">
<stop stop-color="white"/>
<stop offset="0.2152" stop-color="#FCFBFB"/>
<stop offset="0.4105" stop-color="#F2F0F0"/>
<stop offset="0.598" stop-color="#E2DEDE"/>
<stop offset="0.7808" stop-color="#CBC4C4"/>
<stop offset="0.9586" stop-color="#AEA3A3"/>
<stop offset="1" stop-color="#A69A9A"/>
</linearGradient>
<linearGradient id="paint17_linear" x1="190.511" y1="78.6715" x2="190.511" y2="88.8509" gradientUnits="userSpaceOnUse">
<stop stop-color="white"/>
<stop offset="0.2152" stop-color="#FCFBFB"/>
<stop offset="0.4105" stop-color="#F2F0F0"/>
<stop offset="0.598" stop-color="#E2DEDE"/>
<stop offset="0.7808" stop-color="#CBC4C4"/>
<stop offset="0.9586" stop-color="#AEA3A3"/>
<stop offset="1" stop-color="#A69A9A"/>
</linearGradient>
<linearGradient id="paint18_linear" x1="200.523" y1="78.6431" x2="200.523" y2="88.8792" gradientUnits="userSpaceOnUse">
<stop stop-color="white"/>
<stop offset="0.2152" stop-color="#FCFBFB"/>
<stop offset="0.4105" stop-color="#F2F0F0"/>
<stop offset="0.598" stop-color="#E2DEDE"/>
<stop offset="0.7808" stop-color="#CBC4C4"/>
<stop offset="0.9586" stop-color="#AEA3A3"/>
<stop offset="1" stop-color="#A69A9A"/>
</linearGradient>
<linearGradient id="paint19_linear" x1="208.072" y1="78.8127" x2="208.072" y2="88.7098" gradientUnits="userSpaceOnUse">
<stop stop-color="white"/>
<stop offset="0.2152" stop-color="#FCFBFB"/>
<stop offset="0.4105" stop-color="#F2F0F0"/>
<stop offset="0.598" stop-color="#E2DEDE"/>
<stop offset="0.7808" stop-color="#CBC4C4"/>
<stop offset="0.9586" stop-color="#AEA3A3"/>
<stop offset="1" stop-color="#A69A9A"/>
</linearGradient>
<linearGradient id="paint20_linear" x1="213.37" y1="83.2949" x2="213.37" y2="85.359" gradientUnits="userSpaceOnUse">
<stop stop-color="white"/>
<stop offset="0.2152" stop-color="#FCFBFB"/>
<stop offset="0.4105" stop-color="#F2F0F0"/>
<stop offset="0.598" stop-color="#E2DEDE"/>
<stop offset="0.7808" stop-color="#CBC4C4"/>
<stop offset="0.9586" stop-color="#AEA3A3"/>
<stop offset="1" stop-color="#A69A9A"/>
</linearGradient>
<linearGradient id="paint21_linear" x1="221.267" y1="78.8127" x2="221.267" y2="88.7098" gradientUnits="userSpaceOnUse">
<stop stop-color="white"/>
<stop offset="0.2152" stop-color="#FCFBFB"/>
<stop offset="0.4105" stop-color="#F2F0F0"/>
<stop offset="0.598" stop-color="#E2DEDE"/>
<stop offset="0.7808" stop-color="#CBC4C4"/>
<stop offset="0.9586" stop-color="#AEA3A3"/>
<stop offset="1" stop-color="#A69A9A"/>
</linearGradient>
<linearGradient id="paint22_linear" x1="228.011" y1="78.8127" x2="228.011" y2="88.7098" gradientUnits="userSpaceOnUse">
<stop stop-color="white"/>
<stop offset="0.2152" stop-color="#FCFBFB"/>
<stop offset="0.4105" stop-color="#F2F0F0"/>
<stop offset="0.598" stop-color="#E2DEDE"/>
<stop offset="0.7808" stop-color="#CBC4C4"/>
<stop offset="0.9586" stop-color="#AEA3A3"/>
<stop offset="1" stop-color="#A69A9A"/>
</linearGradient>
<linearGradient id="paint23_linear" x1="239.675" y1="78.6431" x2="239.675" y2="88.9076" gradientUnits="userSpaceOnUse">
<stop stop-color="white"/>
<stop offset="0.2152" stop-color="#FCFBFB"/>
<stop offset="0.4105" stop-color="#F2F0F0"/>
<stop offset="0.598" stop-color="#E2DEDE"/>
<stop offset="0.7808" stop-color="#CBC4C4"/>
<stop offset="0.9586" stop-color="#AEA3A3"/>
<stop offset="1" stop-color="#A69A9A"/>
</linearGradient>
<linearGradient id="paint24_linear" x1="254.273" y1="78.8127" x2="254.273" y2="88.7098" gradientUnits="userSpaceOnUse">
<stop stop-color="white"/>
<stop offset="0.2152" stop-color="#FCFBFB"/>
<stop offset="0.4105" stop-color="#F2F0F0"/>
<stop offset="0.598" stop-color="#E2DEDE"/>
<stop offset="0.7808" stop-color="#CBC4C4"/>
<stop offset="0.9586" stop-color="#AEA3A3"/>
<stop offset="1" stop-color="#A69A9A"/>
</linearGradient>
<linearGradient id="paint25_linear" x1="265.738" y1="78.6431" x2="265.738" y2="88.8792" gradientUnits="userSpaceOnUse">
<stop stop-color="white"/>
<stop offset="0.2152" stop-color="#FCFBFB"/>
<stop offset="0.4105" stop-color="#F2F0F0"/>
<stop offset="0.598" stop-color="#E2DEDE"/>
<stop offset="0.7808" stop-color="#CBC4C4"/>
<stop offset="0.9586" stop-color="#AEA3A3"/>
<stop offset="1" stop-color="#A69A9A"/>
</linearGradient>
<linearGradient id="paint26_linear" x1="277.296" y1="78.8127" x2="277.296" y2="88.7098" gradientUnits="userSpaceOnUse">
<stop stop-color="white"/>
<stop offset="0.2152" stop-color="#FCFBFB"/>
<stop offset="0.4105" stop-color="#F2F0F0"/>
<stop offset="0.598" stop-color="#E2DEDE"/>
<stop offset="0.7808" stop-color="#CBC4C4"/>
<stop offset="0.9586" stop-color="#AEA3A3"/>
<stop offset="1" stop-color="#A69A9A"/>
</linearGradient>
<linearGradient id="paint27_linear" x1="287.593" y1="78.8127" x2="287.593" y2="88.7098" gradientUnits="userSpaceOnUse">
<stop stop-color="white"/>
<stop offset="0.2152" stop-color="#FCFBFB"/>
<stop offset="0.4105" stop-color="#F2F0F0"/>
<stop offset="0.598" stop-color="#E2DEDE"/>
<stop offset="0.7808" stop-color="#CBC4C4"/>
<stop offset="0.9586" stop-color="#AEA3A3"/>
<stop offset="1" stop-color="#A69A9A"/>
</linearGradient>
<linearGradient id="paint28_linear" x1="298.438" y1="78.6431" x2="298.438" y2="88.8792" gradientUnits="userSpaceOnUse">
<stop stop-color="white"/>
<stop offset="0.2152" stop-color="#FCFBFB"/>
<stop offset="0.4105" stop-color="#F2F0F0"/>
<stop offset="0.598" stop-color="#E2DEDE"/>
<stop offset="0.7808" stop-color="#CBC4C4"/>
<stop offset="0.9586" stop-color="#AEA3A3"/>
<stop offset="1" stop-color="#A69A9A"/>
</linearGradient>
<linearGradient id="paint29_linear" x1="309.996" y1="78.8127" x2="309.996" y2="88.7098" gradientUnits="userSpaceOnUse">
<stop stop-color="white"/>
<stop offset="0.2152" stop-color="#FCFBFB"/>
<stop offset="0.4105" stop-color="#F2F0F0"/>
<stop offset="0.598" stop-color="#E2DEDE"/>
<stop offset="0.7808" stop-color="#CBC4C4"/>
<stop offset="0.9586" stop-color="#AEA3A3"/>
<stop offset="1" stop-color="#A69A9A"/>
</linearGradient>
<linearGradient id="paint30_linear" x1="12.1728" y1="57.5383" x2="12.1728" y2="0.000244141" gradientUnits="userSpaceOnUse">
<stop stop-color="white"/>
<stop offset="0.2152" stop-color="#FCFBFB"/>
<stop offset="0.4105" stop-color="#F2F0F0"/>
<stop offset="0.598" stop-color="#E2DEDE"/>
<stop offset="0.7808" stop-color="#CBC4C4"/>
<stop offset="0.9586" stop-color="#AEA3A3"/>
<stop offset="1" stop-color="#A69A9A"/>
</linearGradient>
<linearGradient id="paint31_linear" x1="45.2801" y1="57.5383" x2="45.2801" y2="0.160116" gradientUnits="userSpaceOnUse">
<stop stop-color="white"/>
<stop offset="0.2152" stop-color="#FCFBFB"/>
<stop offset="0.4105" stop-color="#F2F0F0"/>
<stop offset="0.598" stop-color="#E2DEDE"/>
<stop offset="0.7808" stop-color="#CBC4C4"/>
<stop offset="0.9586" stop-color="#AEA3A3"/>
<stop offset="1" stop-color="#A69A9A"/>
</linearGradient>
<linearGradient id="paint32_linear" x1="77.1212" y1="57.5383" x2="77.1212" y2="0.000244141" gradientUnits="userSpaceOnUse">
<stop stop-color="white"/>
<stop offset="0.2152" stop-color="#FCFBFB"/>
<stop offset="0.4105" stop-color="#F2F0F0"/>
<stop offset="0.598" stop-color="#E2DEDE"/>
<stop offset="0.7808" stop-color="#CBC4C4"/>
<stop offset="0.9586" stop-color="#AEA3A3"/>
<stop offset="1" stop-color="#A69A9A"/>
</linearGradient>
<linearGradient id="paint33_linear" x1="109.463" y1="57.5383" x2="109.463" y2="0.160116" gradientUnits="userSpaceOnUse">
<stop stop-color="white"/>
<stop offset="0.2152" stop-color="#FCFBFB"/>
<stop offset="0.4105" stop-color="#F2F0F0"/>
<stop offset="0.598" stop-color="#E2DEDE"/>
<stop offset="0.7808" stop-color="#CBC4C4"/>
<stop offset="0.9586" stop-color="#AEA3A3"/>
<stop offset="1" stop-color="#A69A9A"/>
</linearGradient>
<linearGradient id="paint34_linear" x1="124.137" y1="42.5294" x2="160.426" y2="14.9829" gradientUnits="userSpaceOnUse">
<stop stop-color="white"/>
<stop offset="0.2152" stop-color="#FCFBFB"/>
<stop offset="0.4105" stop-color="#F2F0F0"/>
<stop offset="0.598" stop-color="#E2DEDE"/>
<stop offset="0.7808" stop-color="#CBC4C4"/>
<stop offset="0.9586" stop-color="#AEA3A3"/>
<stop offset="1" stop-color="#A69A9A"/>
</linearGradient>
<linearGradient id="paint35_linear" x1="174.41" y1="0.240253" x2="174.41" y2="57.5383" gradientUnits="userSpaceOnUse">
<stop stop-color="white"/>
<stop offset="0.2152" stop-color="#FCFBFB"/>
<stop offset="0.4105" stop-color="#F2F0F0"/>
<stop offset="0.598" stop-color="#E2DEDE"/>
<stop offset="0.7808" stop-color="#CBC4C4"/>
<stop offset="0.9586" stop-color="#AEA3A3"/>
<stop offset="1" stop-color="#A69A9A"/>
</linearGradient>
<linearGradient id="paint36_linear" x1="207.638" y1="0.160113" x2="207.638" y2="57.5383" gradientUnits="userSpaceOnUse">
<stop stop-color="white"/>
<stop offset="0.2152" stop-color="#FCFBFB"/>
<stop offset="0.4105" stop-color="#F2F0F0"/>
<stop offset="0.598" stop-color="#E2DEDE"/>
<stop offset="0.7808" stop-color="#CBC4C4"/>
<stop offset="0.9586" stop-color="#AEA3A3"/>
<stop offset="1" stop-color="#A69A9A"/>
</linearGradient>
<linearGradient id="paint37_linear" x1="240.318" y1="0.160113" x2="240.318" y2="57.5383" gradientUnits="userSpaceOnUse">
<stop stop-color="white"/>
<stop offset="0.2152" stop-color="#FCFBFB"/>
<stop offset="0.4105" stop-color="#F2F0F0"/>
<stop offset="0.598" stop-color="#E2DEDE"/>
<stop offset="0.7808" stop-color="#CBC4C4"/>
<stop offset="0.9586" stop-color="#AEA3A3"/>
<stop offset="1" stop-color="#A69A9A"/>
</linearGradient>
<linearGradient id="paint38_linear" x1="272.619" y1="0.000244141" x2="272.619" y2="57.5383" gradientUnits="userSpaceOnUse">
<stop stop-color="white"/>
<stop offset="0.2152" stop-color="#FCFBFB"/>
<stop offset="0.4105" stop-color="#F2F0F0"/>
<stop offset="0.598" stop-color="#E2DEDE"/>
<stop offset="0.7808" stop-color="#CBC4C4"/>
<stop offset="0.9586" stop-color="#AEA3A3"/>
<stop offset="1" stop-color="#A69A9A"/>
</linearGradient>
<linearGradient id="paint39_linear" x1="303.502" y1="0.240253" x2="303.502" y2="57.5383" gradientUnits="userSpaceOnUse">
<stop stop-color="white"/>
<stop offset="0.2152" stop-color="#FCFBFB"/>
<stop offset="0.4105" stop-color="#F2F0F0"/>
<stop offset="0.598" stop-color="#E2DEDE"/>
<stop offset="0.7808" stop-color="#CBC4C4"/>
<stop offset="0.9586" stop-color="#AEA3A3"/>
<stop offset="1" stop-color="#A69A9A"/>
</linearGradient>
<linearGradient id="paint40_linear" x1="2.70048" y1="68.9034" x2="314.304" y2="68.9034" gradientUnits="userSpaceOnUse">
<stop offset="2.49653e-07" stop-color="#FFDD15"/>
<stop offset="0.0383" stop-color="#FFD915"/>
<stop offset="0.073" stop-color="#FDCE17"/>
<stop offset="0.1064" stop-color="#FBBC19"/>
<stop offset="0.1388" stop-color="#F8A21C"/>
<stop offset="0.1552" stop-color="#F6921E"/>
<stop offset="0.2065" stop-color="#F68E1F"/>
<stop offset="0.253" stop-color="#F48321"/>
<stop offset="0.2976" stop-color="#F27124"/>
<stop offset="0.3369" stop-color="#F05A28"/>
<stop offset="0.3827" stop-color="#F05628"/>
<stop offset="0.4242" stop-color="#EF4B27"/>
<stop offset="0.4641" stop-color="#EE3926"/>
<stop offset="0.5027" stop-color="#EC1F24"/>
<stop offset="0.5067" stop-color="#EC1C24"/>
<stop offset="0.5436" stop-color="#E81E27"/>
<stop offset="0.577" stop-color="#DD2531"/>
<stop offset="0.6091" stop-color="#CB3040"/>
<stop offset="0.6405" stop-color="#B14057"/>
<stop offset="0.6712" stop-color="#8F5573"/>
<stop offset="0.7015" stop-color="#666E97"/>
<stop offset="0.7309" stop-color="#368CBF"/>
<stop offset="0.7597" stop-color="#00ADEE"/>
<stop offset="0.8068" stop-color="#01A9EB"/>
<stop offset="0.8495" stop-color="#059EE3"/>
<stop offset="0.8905" stop-color="#0C8CD5"/>
<stop offset="0.9305" stop-color="#1672C2"/>
<stop offset="0.9693" stop-color="#2251A9"/>
<stop offset="1" stop-color="#2E3191"/>
</linearGradient>
<clipPath id="clip0">
<rect width="317" height="91" fill="white" transform="translate(0 0.000244141)"/>
</clipPath>
</defs>
</svg>
