<svg width="127" height="33" viewBox="0 0 127 33" fill="none" xmlns="http://www.w3.org/2000/svg">
<path d="M1.144 27H1.716V24.129H3.795C5.401 24.129 6.798 23.293 6.798 21.676V21.654C6.798 20.169 5.632 19.3 3.938 19.3H1.144V27ZM1.716 23.601V19.828H3.894C5.28 19.828 6.226 20.466 6.226 21.687V21.709C6.226 22.853 5.258 23.601 3.828 23.601H1.716ZM10.6929 27.132C12.3649 27.132 13.5859 25.768 13.5859 24.195V24.173C13.5859 22.6 12.3759 21.258 10.7149 21.258C9.04295 21.258 7.82195 22.622 7.82195 24.195V24.217C7.82195 25.79 9.03195 27.132 10.6929 27.132ZM10.7149 26.626C9.41695 26.626 8.40495 25.548 8.40495 24.195V24.173C8.40495 22.853 9.36195 21.764 10.6929 21.764C11.9909 21.764 13.0029 22.842 13.0029 24.195V24.217C13.0029 25.537 12.0459 26.626 10.7149 26.626ZM16.4268 27.044H16.8888L18.5718 22.237L20.2438 27.044H20.7058L22.7628 21.39H22.1798L20.4858 26.318L18.7918 21.368H18.3628L16.6688 26.318L14.9748 21.39H14.3698L16.4268 27.044ZM26.3041 27.132C27.3821 27.132 28.0531 26.692 28.6251 26.076L28.2511 25.746C27.7891 26.241 27.1951 26.626 26.3261 26.626C25.2261 26.626 24.2251 25.812 24.1261 24.415H28.7791C28.7901 24.327 28.7901 24.294 28.7901 24.195C28.7901 22.534 27.7891 21.258 26.2161 21.258C24.6981 21.258 23.5541 22.556 23.5541 24.184V24.206C23.5541 25.955 24.8301 27.132 26.3041 27.132ZM24.1261 23.931C24.2251 22.688 25.0831 21.753 26.1941 21.753C27.4811 21.753 28.1301 22.798 28.2071 23.931H24.1261ZM30.2529 27H30.7919V24.701C30.7919 22.875 31.9249 21.896 33.2229 21.896H33.2779V21.302C32.1669 21.258 31.2319 21.984 30.7919 22.985V21.39H30.2529V27ZM36.6329 27.132C37.7109 27.132 38.3819 26.692 38.9539 26.076L38.5799 25.746C38.1179 26.241 37.5239 26.626 36.6549 26.626C35.5549 26.626 34.5539 25.812 34.4549 24.415H39.1079C39.1189 24.327 39.1189 24.294 39.1189 24.195C39.1189 22.534 38.1179 21.258 36.5449 21.258C35.0269 21.258 33.8829 22.556 33.8829 24.184V24.206C33.8829 25.955 35.1589 27.132 36.6329 27.132ZM34.4549 23.931C34.5539 22.688 35.4119 21.753 36.5229 21.753C37.8099 21.753 38.4589 22.798 38.5359 23.931H34.4549ZM42.9468 27.132C44.0578 27.132 44.7728 26.483 45.2568 25.746V27H45.7958V18.97H45.2568V22.6C44.7948 21.896 44.0688 21.258 42.9468 21.258C41.5938 21.258 40.2188 22.369 40.2188 24.195V24.217C40.2188 26.043 41.5938 27.132 42.9468 27.132ZM43.0018 26.615C41.8248 26.615 40.8018 25.669 40.8018 24.195V24.173C40.8018 22.666 41.7808 21.775 43.0018 21.775C44.1678 21.775 45.2898 22.743 45.2898 24.184V24.206C45.2898 25.636 44.1678 26.615 43.0018 26.615ZM53.7703 27.132C55.1233 27.132 56.4983 26.021 56.4983 24.195V24.173C56.4983 22.347 55.1233 21.258 53.7703 21.258C52.6593 21.258 51.9443 21.907 51.4603 22.644V18.97H50.9213V27H51.4603V25.79C51.9223 26.494 52.6483 27.132 53.7703 27.132ZM53.7153 26.615C52.5493 26.615 51.4273 25.647 51.4273 24.206V24.184C51.4273 22.754 52.5493 21.775 53.7153 21.775C54.8923 21.775 55.9153 22.721 55.9153 24.195V24.217C55.9153 25.724 54.9363 26.615 53.7153 26.615ZM60.1587 26.406L57.8267 21.39H57.1997L59.8947 26.967C59.4767 27.946 59.0917 28.287 58.5087 28.287C58.0907 28.287 57.8487 28.221 57.5517 28.078L57.3647 28.551C57.7387 28.716 58.0467 28.793 58.4757 28.793C59.2787 28.793 59.8507 28.375 60.3457 27.198L62.7767 21.39H62.1827L60.1587 26.406Z" fill="#FCFCFD"/>
<path d="M92.844 10.8601L89.525 13.3156V14.6186C89.1821 14.5943 88.1568 14.6093 87.5198 14.6198H86.6478C83.9351 14.6198 81.7017 16.7139 81.4178 19.4045L81.386 19.4427L81.0862 26.9296H84.4052V20.9206C84.4052 18.9887 85.5043 18.0111 86.7897 18.0111C87.0838 18.0111 88.4077 17.937 89.1174 17.9636L89.525 18.0111V21.9457C89.525 25.0695 92.0492 27.1914 95.5793 27.1914V23.829C94.0601 23.829 92.844 23.2093 92.844 21.8495V18.0134H95.6486V14.8896H92.844V10.8601Z" fill="url(#paint0_linear)"/>
<path d="M102.217 14.6267C98.8279 14.6267 96.0926 17.4401 96.0926 20.9218C96.0926 24.3548 98.9449 27.1925 102.498 27.1925C104.602 27.1925 106.682 26.215 107.687 24.6884L105.046 22.614C104.508 23.4722 103.503 23.8301 102.498 23.8301C102.147 23.8301 101.82 23.8058 101.516 23.6865L108.107 18.8705C107.384 16.6305 105.139 14.6267 102.217 14.6267ZM99.5524 21.7094C99.482 21.4708 99.4593 21.209 99.4593 20.9229C99.4593 19.2296 100.698 18.0134 102.217 18.0134C102.849 18.0134 103.386 18.2277 103.854 18.5856L99.5524 21.7094Z" fill="url(#paint1_linear)"/>
<path d="M74.0872 14.5549C70.7251 14.5549 68 17.3347 68 20.7643C68 24.1938 70.7251 26.9736 74.0872 26.9736V23.6796C74.0872 23.6796 71.4246 22.5978 71.6959 20.1342C71.889 19.3894 72.4045 18.0135 74.8071 18.3389C75.6224 18.3829 76.3093 19.0269 76.2446 20.484C76.2662 21.4685 76.2446 26.9817 76.2446 26.9817H77.79H78.1113H80.1745V20.7643C80.1733 17.3347 77.4482 14.5549 74.0872 14.5549Z" fill="url(#paint2_linear)"/>
<path d="M127 14.8781H123.981L123.835 23.7618V23.939H122.262C120.613 23.7503 119.085 23.8232 118.858 21.7094L118.767 14.8677H115.719L112.911 14.8908V14.6047C112.911 13.4361 113.916 12.4828 115.459 12.4828V9C112.257 9 109.592 11.3848 109.592 14.7229V14.8897H108.786V18.1223L109.592 18.098V26.9308H112.911V18.0135H115.719V21.8009C115.674 25.1425 118.668 26.6841 121.901 26.9169L123.835 26.9285V27.0165C123.835 29.1511 122.845 30.0303 121.193 30.0303H116.395V33.0012H120.409C126.359 33.0012 126.999 30.3384 126.999 27.0536V23.8545L127 14.8781Z" fill="url(#paint3_linear)"/>
<path d="M91.6097 30.0247H92.4341C92.8213 30.0247 93.1017 30.0837 93.2743 30.2019C93.4469 30.32 93.5332 30.5065 93.5332 30.7613C93.5332 30.9374 93.4844 31.0833 93.389 31.198C93.2936 31.3126 93.1517 31.3868 92.9666 31.4203V31.4412C93.4095 31.5188 93.6309 31.7562 93.6309 32.1535C93.6309 32.4199 93.5423 32.6272 93.3663 32.7767C93.1903 32.9261 92.9439 33.0002 92.6271 33.0002H91.6097V30.0247ZM91.9481 31.2987H92.5068C92.7463 31.2987 92.9189 31.2605 93.0234 31.1841C93.129 31.1076 93.1812 30.9779 93.1812 30.796C93.1812 30.6293 93.1222 30.5088 93.0052 30.4347C92.8883 30.3605 92.7021 30.3235 92.4466 30.3235H91.9481V31.2987ZM91.9481 31.5918V32.7048H92.5567C92.7918 32.7048 92.9689 32.6585 93.0881 32.5659C93.2073 32.4732 93.2664 32.3273 93.2664 32.1292C93.2664 31.945 93.2051 31.8095 93.0836 31.7226C92.9621 31.6358 92.777 31.5929 92.5283 31.5929H91.9481V31.5918Z" fill="#6D6E71"/>
<path d="M99.5614 32.9999H97.9354V30.0244H99.5614V30.3313H98.2738V31.2904H99.4831V31.5962H98.2738V32.6907H99.5614V32.9999Z" fill="#6D6E71"/>
<path d="M104.785 32.9999H104.445V30.3313H103.521V30.0244H105.708V30.3313H104.783V32.9999H104.785Z" fill="#6D6E71"/>
<path d="M111.659 33L111.295 32.0537H110.126L109.767 33H109.424L110.578 30.0117H110.863L112.011 33H111.659ZM111.19 31.7421L110.85 30.8202C110.806 30.7032 110.761 30.5607 110.714 30.3905C110.684 30.5202 110.642 30.6638 110.588 30.8202L110.245 31.7421H111.19Z" fill="#6D6E71"/>
<defs>
<linearGradient id="paint0_linear" x1="88.3675" y1="27.193" x2="88.3675" y2="10.8598" gradientUnits="userSpaceOnUse">
<stop offset="0.000948566" stop-color="#00E6F0"/>
<stop offset="0.0478" stop-color="#15D6F2"/>
<stop offset="0.1544" stop-color="#3FB5F5"/>
<stop offset="0.267" stop-color="#6399F8"/>
<stop offset="0.3847" stop-color="#8082FB"/>
<stop offset="0.5093" stop-color="#9770FD"/>
<stop offset="0.6438" stop-color="#A764FE"/>
<stop offset="0.7953" stop-color="#B05CFF"/>
<stop offset="1" stop-color="#B35AFF"/>
</linearGradient>
<linearGradient id="paint1_linear" x1="102.1" y1="27.193" x2="102.1" y2="14.6272" gradientUnits="userSpaceOnUse">
<stop offset="0.000948566" stop-color="#00E6F0"/>
<stop offset="0.0478" stop-color="#15D6F2"/>
<stop offset="0.1544" stop-color="#3FB5F5"/>
<stop offset="0.267" stop-color="#6399F8"/>
<stop offset="0.3847" stop-color="#8082FB"/>
<stop offset="0.5093" stop-color="#9770FD"/>
<stop offset="0.6438" stop-color="#A764FE"/>
<stop offset="0.7953" stop-color="#B05CFF"/>
<stop offset="1" stop-color="#B35AFF"/>
</linearGradient>
<linearGradient id="paint2_linear" x1="74.0868" y1="26.9814" x2="74.0868" y2="14.5554" gradientUnits="userSpaceOnUse">
<stop offset="0.000948566" stop-color="#00E6F0"/>
<stop offset="0.0478" stop-color="#15D6F2"/>
<stop offset="0.1544" stop-color="#3FB5F5"/>
<stop offset="0.267" stop-color="#6399F8"/>
<stop offset="0.3847" stop-color="#8082FB"/>
<stop offset="0.5093" stop-color="#9770FD"/>
<stop offset="0.6438" stop-color="#A764FE"/>
<stop offset="0.7953" stop-color="#B05CFF"/>
<stop offset="1" stop-color="#B35AFF"/>
</linearGradient>
<linearGradient id="paint3_linear" x1="117.893" y1="32.9999" x2="117.893" y2="9" gradientUnits="userSpaceOnUse">
<stop offset="0.000948566" stop-color="#00E6F0"/>
<stop offset="0.0478" stop-color="#15D6F2"/>
<stop offset="0.1544" stop-color="#3FB5F5"/>
<stop offset="0.267" stop-color="#6399F8"/>
<stop offset="0.3847" stop-color="#8082FB"/>
<stop offset="0.5093" stop-color="#9770FD"/>
<stop offset="0.6438" stop-color="#A764FE"/>
<stop offset="0.7953" stop-color="#B05CFF"/>
<stop offset="1" stop-color="#B35AFF"/>
</linearGradient>
</defs>
</svg>
