<svg id="svg" version="1.1" xmlns="http://www.w3.org/2000/svg" xmlns:xlink="http://www.w3.org/1999/xlink" width="400" height="400" viewBox="0, 0, 400,400"><g id="svgg"><path id="path0" d="M92.262 111.131 C 90.925 112.608,91.375 114.308,95.719 124.200 C 97.169 127.500,99.446 133.153,100.779 136.762 C 102.113 140.370,103.378 143.533,103.590 143.788 C 104.068 144.364,107.160 151.638,109.207 157.000 C 110.046 159.200,111.556 162.936,112.563 165.302 C 113.569 167.667,115.215 171.537,116.222 173.902 C 121.017 185.168,119.974 186.807,110.200 183.370 C 95.703 178.273,94.697 177.959,93.265 178.078 C 90.557 178.304,91.032 180.611,95.092 186.942 C 96.099 188.514,98.092 191.780,99.520 194.200 C 100.948 196.620,103.502 200.850,105.196 203.600 C 106.890 206.350,109.148 210.130,110.214 212.000 C 111.279 213.870,112.863 216.463,113.732 217.761 C 114.602 219.060,116.520 222.210,117.994 224.761 C 124.473 235.973,131.123 247.120,133.157 250.174 C 134.192 251.728,136.097 254.800,137.390 257.000 C 138.684 259.200,140.584 262.350,141.612 264.000 C 142.640 265.650,145.018 269.610,146.896 272.800 C 150.239 278.480,157.463 290.441,160.666 295.600 C 161.554 297.030,163.314 300.041,164.577 302.291 C 167.778 307.991,170.259 311.193,172.406 312.395 L 174.200 313.400 200.200 313.400 L 226.200 313.400 227.913 312.419 C 229.985 311.233,231.841 308.828,235.183 303.000 C 236.571 300.580,238.789 296.890,240.111 294.800 C 241.433 292.710,243.006 290.190,243.606 289.200 C 244.206 288.210,245.732 285.690,246.997 283.600 C 248.263 281.510,251.571 276.059,254.349 271.486 C 257.127 266.913,260.750 260.871,262.400 258.059 C 264.050 255.246,266.238 251.697,267.263 250.173 C 268.288 248.648,270.432 245.060,272.029 242.200 C 273.625 239.340,275.923 235.470,277.135 233.600 C 278.346 231.730,280.703 227.860,282.371 225.000 C 284.040 222.140,286.272 218.450,287.332 216.800 C 288.391 215.150,290.926 211.010,292.964 207.600 C 299.739 196.265,301.946 192.632,304.265 189.000 C 310.559 179.140,310.638 175.785,304.522 178.030 C 303.245 178.498,300.850 179.291,299.200 179.791 C 297.550 180.291,295.120 181.153,293.800 181.705 C 281.310 186.936,279.133 185.150,284.166 173.800 C 287.579 166.105,290.354 159.323,291.239 156.516 C 291.951 154.257,295.019 146.907,297.131 142.400 C 297.594 141.410,298.907 138.170,300.047 135.200 C 301.188 132.230,303.441 126.703,305.055 122.917 C 311.267 108.344,310.637 107.936,292.400 114.722 C 289.618 115.757,285.129 117.259,279.000 119.206 C 276.360 120.044,271.950 121.571,269.200 122.600 C 266.450 123.628,262.220 125.148,259.800 125.976 C 250.058 129.311,247.034 132.538,244.403 142.407 C 244.140 143.393,242.529 147.440,240.823 151.400 C 239.118 155.360,236.945 160.760,235.995 163.400 C 235.044 166.040,233.739 169.460,233.094 171.000 C 231.876 173.907,229.171 180.641,226.587 187.200 C 225.763 189.290,224.279 192.890,223.289 195.200 C 222.298 197.510,220.809 201.290,219.980 203.600 C 217.813 209.639,215.989 214.274,213.446 220.200 C 208.395 231.972,209.655 232.396,229.000 225.426 C 236.460 222.738,238.215 227.108,232.673 234.572 C 232.172 235.248,230.612 237.780,229.208 240.200 C 225.257 247.007,223.166 250.492,222.261 251.779 C 221.806 252.428,220.151 255.308,218.584 258.179 C 217.017 261.051,213.343 267.360,210.420 272.200 C 199.715 289.922,199.886 289.920,189.710 272.400 C 187.602 268.770,185.213 264.720,184.403 263.400 C 183.592 262.080,181.969 259.290,180.796 257.200 C 179.623 255.110,178.164 252.663,177.555 251.762 C 176.945 250.860,174.731 247.121,172.635 243.451 C 170.539 239.781,168.307 236.018,167.675 235.089 C 161.560 226.095,162.376 221.951,169.696 224.827 C 180.507 229.075,186.896 230.803,188.218 229.836 C 189.564 228.852,187.563 220.545,185.029 216.600 C 184.747 216.160,183.782 213.820,182.886 211.400 C 178.823 200.432,178.086 198.508,177.597 197.594 C 176.990 196.460,174.969 191.507,172.784 185.800 C 170.674 180.290,168.374 174.511,166.494 170.000 C 165.624 167.910,164.081 163.992,163.067 161.294 C 162.052 158.595,160.151 153.825,158.841 150.694 C 157.531 147.562,155.359 142.228,154.014 138.839 C 150.587 130.208,149.553 129.222,141.200 126.623 C 139.330 126.042,136.000 124.870,133.800 124.019 C 131.600 123.169,127.010 121.529,123.600 120.376 C 120.190 119.223,114.610 117.303,111.200 116.110 C 93.291 109.843,93.402 109.872,92.262 111.131 " stroke="none" fill="#f9f5f9" fill-rule="evenodd"></path><path id="path1" d="M283.600 0.972 C 283.600 1.662,283.861 1.995,284.500 2.118 L 285.400 2.291 284.500 2.346 C 283.621 2.399,283.600 2.508,283.600 7.127 C 283.600 9.726,283.398 12.921,283.152 14.227 C 282.906 15.532,282.591 18.400,282.452 20.600 C 282.215 24.356,282.145 24.608,281.299 24.728 C 280.804 24.798,280.212 25.203,279.985 25.628 C 279.758 26.053,279.258 26.400,278.875 26.400 C 278.492 26.400,277.803 26.663,277.345 26.983 C 276.887 27.304,275.279 27.764,273.772 28.004 C 272.265 28.245,270.395 28.721,269.616 29.062 C 267.119 30.154,266.205 30.594,266.000 30.799 C 265.890 30.910,265.125 31.312,264.300 31.694 L 262.800 32.387 262.800 44.194 L 262.800 56.000 261.165 56.000 C 259.727 56.000,259.320 56.228,257.781 57.900 L 256.032 59.800 256.016 64.620 L 256.000 69.441 254.208 71.220 L 252.416 73.000 252.408 91.472 C 252.401 108.735,252.446 109.956,253.100 110.119 C 253.485 110.216,253.295 110.258,252.679 110.213 C 251.935 110.160,251.423 110.384,251.158 110.879 C 250.804 111.540,250.876 111.596,251.784 111.368 C 252.887 111.091,252.886 111.868,251.780 113.200 C 251.507 113.530,251.212 114.160,251.127 114.600 C 251.034 115.076,250.705 115.355,250.315 115.289 C 249.894 115.218,249.612 115.504,249.529 116.085 C 249.458 116.584,249.105 117.048,248.744 117.117 C 247.800 117.296,244.677 120.278,244.957 120.731 C 245.087 120.941,244.745 121.406,244.197 121.765 C 242.732 122.725,242.957 123.504,244.847 124.013 C 247.488 124.724,247.946 125.951,246.411 128.200 C 246.261 128.420,245.810 129.500,245.409 130.600 C 244.681 132.600,243.409 134.741,242.619 135.294 C 242.389 135.456,242.348 135.591,242.529 135.594 C 242.709 135.597,242.574 135.883,242.229 136.229 C 241.883 136.574,241.586 137.069,241.569 137.329 C 241.396 139.992,240.492 142.088,239.400 142.355 C 239.180 142.409,238.774 142.846,238.497 143.326 C 237.875 144.405,238.147 142.859,239.047 140.200 C 239.345 139.320,239.591 138.217,239.594 137.748 C 239.597 137.280,240.082 135.843,240.671 134.556 C 243.351 128.704,241.903 123.046,238.493 126.040 C 237.767 126.678,236.911 127.200,236.591 127.200 C 235.805 127.200,234.896 129.480,233.969 133.779 C 233.544 135.747,232.658 138.876,231.998 140.731 C 230.641 144.552,230.525 145.391,231.400 145.055 C 231.783 144.909,232.000 145.062,232.000 145.479 C 232.000 145.839,232.117 146.016,232.260 145.873 C 232.404 145.730,232.746 145.920,233.020 146.295 C 233.616 147.110,235.422 146.391,235.804 145.186 C 235.934 144.779,236.429 144.500,237.022 144.500 C 237.759 144.500,237.971 144.671,237.827 145.150 C 237.720 145.508,237.533 146.668,237.411 147.729 C 237.290 148.790,236.933 150.156,236.618 150.765 C 236.304 151.373,235.653 153.475,235.174 155.436 C 234.024 160.131,230.000 167.451,230.000 164.846 C 230.000 164.575,229.820 164.464,229.600 164.600 C 229.380 164.736,229.200 164.617,229.200 164.335 C 229.200 164.030,228.843 164.179,228.318 164.704 C 227.467 165.555,227.456 165.672,227.988 168.093 C 228.862 172.075,228.218 175.439,226.193 177.464 C 225.910 177.747,225.262 178.659,224.754 179.489 C 223.692 181.226,222.800 182.227,222.800 181.684 C 222.800 181.478,222.365 181.358,221.834 181.416 C 221.302 181.474,220.537 181.224,220.134 180.860 C 219.245 180.057,217.645 180.210,217.300 181.131 C 217.162 181.499,216.786 181.998,216.464 182.239 C 216.141 182.481,216.011 182.894,216.173 183.157 C 216.336 183.420,216.295 183.852,216.083 184.118 C 215.382 184.995,215.016 190.250,215.696 189.686 C 216.014 189.423,216.394 189.327,216.541 189.474 C 216.688 189.621,217.031 189.463,217.304 189.122 C 218.032 188.213,220.445 187.485,220.975 188.015 C 221.951 188.991,221.470 192.281,220.148 193.678 C 218.584 195.330,218.179 196.149,217.844 198.337 C 217.698 199.292,217.179 200.792,216.689 201.671 C 216.200 202.550,215.485 203.838,215.101 204.534 C 214.716 205.230,214.401 206.488,214.401 207.329 C 214.399 210.340,211.663 217.117,209.205 220.199 C 206.265 223.885,204.143 231.200,206.013 231.200 C 206.191 231.200,206.450 231.695,206.588 232.300 C 207.323 235.514,209.286 235.869,213.800 233.606 C 218.265 231.368,221.862 232.199,221.503 235.386 C 221.301 237.172,219.777 239.354,218.952 239.037 C 218.371 238.814,215.524 241.154,215.812 241.619 C 215.922 241.798,215.827 242.060,215.600 242.200 C 215.373 242.340,215.298 242.634,215.433 242.853 C 215.568 243.072,215.376 243.585,215.006 243.994 C 214.370 244.696,214.388 244.774,215.345 245.401 C 216.580 246.210,217.714 246.419,218.050 245.901 C 218.188 245.688,218.669 245.631,219.119 245.774 C 220.240 246.130,220.005 247.624,218.384 250.445 C 217.227 252.460,216.608 252.992,213.897 254.305 C 213.730 254.385,213.426 254.035,213.222 253.526 C 212.857 252.617,212.850 252.616,212.825 253.467 C 212.811 253.944,212.676 254.664,212.525 255.067 C 212.274 255.736,212.316 255.747,213.005 255.200 C 213.785 254.581,213.259 255.663,210.781 259.776 C 210.259 260.642,210.048 261.218,210.311 261.055 C 210.614 260.868,210.716 260.953,210.588 261.288 C 210.243 262.187,208.726 262.898,206.887 263.022 C 205.920 263.087,204.816 263.424,204.433 263.770 C 204.050 264.117,203.530 264.400,203.276 264.400 C 203.023 264.400,202.703 264.849,202.565 265.397 C 202.427 265.946,202.154 266.295,201.957 266.174 C 201.468 265.871,201.502 270.142,201.993 270.633 C 204.442 273.082,202.957 278.400,199.825 278.400 C 198.453 278.400,194.770 273.931,195.416 273.051 C 195.517 272.913,195.495 272.875,195.366 272.967 C 194.282 273.742,189.823 266.577,189.631 263.750 C 189.614 263.503,188.740 262.467,187.689 261.447 C 186.638 260.428,185.429 258.920,185.003 258.097 C 184.576 257.274,183.707 255.970,183.072 255.200 C 181.573 253.382,178.000 247.573,178.000 246.953 C 178.000 245.404,173.787 238.364,171.206 235.600 C 167.027 231.125,165.172 226.800,167.432 226.800 C 168.737 226.800,173.060 228.497,176.262 230.266 C 177.648 231.032,179.834 231.821,181.262 232.072 C 182.658 232.317,184.580 232.851,185.533 233.259 C 191.726 235.907,194.587 230.091,190.779 222.592 C 189.887 220.837,188.745 218.410,188.242 217.200 C 187.738 215.990,186.872 214.336,186.318 213.525 C 185.763 212.714,185.002 210.824,184.626 209.325 C 184.250 207.826,183.408 205.666,182.755 204.524 C 182.099 203.375,181.380 201.320,181.148 199.924 C 180.888 198.369,180.220 196.555,179.408 195.200 C 177.947 192.763,175.796 187.694,174.399 183.400 C 173.899 181.860,172.988 179.610,172.376 178.400 C 171.763 177.190,170.324 173.680,169.179 170.600 C 168.033 167.520,166.577 163.847,165.944 162.438 C 165.311 161.028,164.454 158.778,164.039 157.438 C 163.149 154.566,160.727 148.631,159.289 145.800 C 158.299 143.849,156.417 139.367,153.957 133.097 C 152.394 129.113,148.142 126.324,141.600 124.993 C 140.265 124.721,137.852 123.821,129.800 120.590 C 127.820 119.795,124.427 118.613,122.260 117.962 C 120.093 117.312,117.830 116.526,117.232 116.216 C 116.633 115.907,114.644 115.271,112.811 114.803 C 110.978 114.335,108.643 113.529,107.622 113.011 C 106.601 112.494,104.694 111.774,103.383 111.412 C 102.072 111.050,99.429 110.204,97.508 109.531 C 92.340 107.720,89.358 108.584,89.488 111.854 C 89.576 114.062,93.422 124.071,96.039 128.900 C 96.486 129.725,97.812 133.325,98.987 136.900 C 100.162 140.475,101.907 144.930,102.864 146.800 C 105.646 152.232,107.191 155.771,107.972 158.501 C 108.372 159.900,108.985 161.598,109.335 162.274 C 109.684 162.950,110.435 164.738,111.003 166.247 C 111.571 167.757,112.459 169.713,112.975 170.596 C 114.930 173.937,117.345 181.164,116.861 182.226 C 116.127 183.837,112.020 183.177,106.921 180.629 C 105.424 179.882,103.570 179.148,102.800 178.998 C 102.030 178.849,99.855 178.024,97.966 177.165 C 87.611 172.454,86.076 176.373,93.788 187.827 C 95.204 189.930,97.460 193.804,98.801 196.434 C 100.142 199.065,101.745 201.799,102.363 202.509 C 103.528 203.848,105.523 207.091,109.187 213.600 C 110.363 215.690,111.943 218.169,112.698 219.110 C 113.452 220.050,115.554 223.650,117.367 227.110 C 119.181 230.569,121.441 234.660,122.390 236.200 C 125.136 240.657,126.817 243.649,127.784 245.800 C 128.278 246.900,129.744 249.240,131.042 251.000 C 135.221 256.670,138.063 261.316,141.207 267.616 C 141.815 268.835,143.893 272.435,145.825 275.616 C 147.756 278.797,150.083 282.840,150.997 284.600 C 151.910 286.360,153.229 288.690,153.928 289.778 C 154.628 290.866,155.200 291.950,155.200 292.185 C 155.200 292.421,155.635 293.254,156.166 294.037 C 156.698 294.819,158.165 297.516,159.426 300.029 C 162.028 305.216,163.723 307.975,165.553 310.000 C 166.249 310.770,167.489 312.272,168.309 313.337 C 170.357 315.997,172.131 316.814,176.770 317.234 C 185.603 318.033,193.051 318.406,200.200 318.406 C 209.759 318.407,211.894 318.637,212.232 319.702 C 212.746 321.321,208.025 323.600,204.158 323.600 C 203.217 323.600,202.326 323.796,202.178 324.036 C 202.023 324.287,201.376 324.374,200.654 324.242 C 199.750 324.076,199.121 324.234,198.400 324.808 C 195.868 326.825,194.270 327.635,193.054 327.519 C 192.042 327.423,191.777 327.560,191.681 328.231 C 191.615 328.694,190.859 329.493,189.979 330.031 C 189.108 330.564,188.287 331.407,188.153 331.905 C 188.020 332.403,187.659 332.951,187.351 333.124 C 185.136 334.363,184.652 340.501,186.600 342.628 L 188.000 344.156 188.000 349.116 C 188.000 353.620,188.083 354.193,188.900 355.338 C 189.691 356.447,189.817 357.191,189.940 361.464 L 190.080 366.329 188.940 367.055 C 188.313 367.455,187.710 367.884,187.600 368.010 C 187.490 368.136,186.280 368.572,184.911 368.979 C 183.542 369.387,182.065 370.053,181.628 370.460 C 181.165 370.891,180.242 371.200,179.417 371.200 L 178.000 371.200 178.000 384.400 L 178.000 397.600 179.500 397.647 C 180.827 397.688,180.749 397.735,178.826 398.054 C 176.518 398.437,175.694 398.800,177.133 398.800 C 178.276 398.800,178.250 399.496,177.100 399.718 C 176.605 399.813,209.545 399.916,250.300 399.946 C 299.470 399.982,324.400 399.865,324.400 399.600 C 324.400 399.370,322.912 399.165,320.900 399.119 L 317.400 399.037 320.745 398.902 C 323.559 398.788,327.111 397.621,324.729 397.594 C 324.338 397.589,324.357 397.486,324.800 397.200 C 325.209 396.936,324.087 396.810,321.276 396.806 C 318.631 396.802,317.241 396.657,317.400 396.400 C 317.536 396.180,319.167 396.000,321.024 396.000 C 323.008 396.000,324.400 395.835,324.400 395.600 C 324.400 395.365,323.000 395.200,321.000 395.200 L 317.600 395.200 317.600 385.252 L 317.600 375.303 320.426 375.025 C 322.829 374.788,323.383 374.586,324.126 373.673 C 325.025 372.569,328.675 368.963,330.035 367.835 C 330.755 367.237,330.800 366.543,330.800 356.063 L 330.800 344.927 332.400 344.447 C 333.280 344.184,334.000 343.802,334.000 343.599 C 334.000 343.397,334.765 343.027,335.700 342.779 C 341.286 341.294,341.596 340.507,341.601 327.800 C 341.606 313.419,342.029 312.328,347.817 311.786 C 352.252 311.370,352.000 312.292,352.000 296.511 L 352.000 283.200 349.800 283.200 L 347.600 283.200 347.600 271.800 L 347.600 260.400 348.733 260.400 C 350.245 260.400,354.399 259.553,354.402 259.245 C 354.403 259.110,355.483 257.871,356.802 256.492 L 359.200 253.984 359.200 248.225 C 359.200 245.058,359.341 242.407,359.513 242.333 C 360.706 241.825,361.600 239.017,361.600 235.777 L 361.600 232.400 363.100 232.382 C 364.381 232.367,364.844 232.085,366.269 230.453 C 369.830 226.377,369.770 226.673,370.036 212.000 C 370.250 200.227,370.344 198.868,371.036 197.600 C 371.664 196.448,371.823 195.189,371.930 190.500 L 372.059 184.800 373.230 184.800 L 374.400 184.800 374.400 166.200 L 374.400 147.600 377.800 147.600 L 381.200 147.600 381.200 146.208 C 381.200 144.984,381.395 144.717,382.819 143.990 C 383.710 143.536,384.542 142.894,384.669 142.565 C 384.795 142.235,385.596 141.610,386.449 141.175 L 388.000 140.384 388.000 135.560 L 388.000 130.737 389.788 128.949 L 391.576 127.160 391.688 122.080 L 391.800 117.000 393.698 116.878 C 395.272 116.777,395.630 116.607,395.800 115.878 C 395.912 115.395,396.165 114.280,396.362 113.400 L 396.720 111.800 396.820 113.600 C 396.897 114.989,396.959 115.133,397.093 114.230 C 397.224 113.350,397.356 113.202,397.627 113.630 C 397.907 114.073,397.989 114.010,397.994 113.349 C 398.000 112.557,399.193 111.083,399.206 111.851 C 399.209 112.043,399.387 111.930,399.600 111.600 C 399.846 111.220,399.990 90.641,399.994 55.500 L 400.000 0.000 341.800 0.000 L 283.600 0.000 283.600 0.972 M309.000 109.431 C 310.119 110.278,309.940 113.895,308.592 117.696 C 308.025 119.293,307.043 122.130,306.408 124.000 C 305.773 125.870,304.509 128.983,303.599 130.918 C 302.689 132.852,301.240 136.336,300.378 138.659 C 299.517 140.981,298.089 143.964,297.206 145.286 C 296.323 146.609,295.600 147.932,295.600 148.226 C 295.600 148.520,294.972 150.189,294.205 151.934 C 293.438 153.679,292.542 156.252,292.214 157.653 C 291.656 160.035,288.424 168.007,287.627 168.967 C 287.430 169.205,286.797 170.660,286.221 172.200 C 285.645 173.740,284.571 175.990,283.834 177.200 C 279.971 183.540,282.042 185.477,289.035 182.066 C 291.216 181.003,294.530 179.729,296.400 179.235 C 298.270 178.740,301.074 177.714,302.632 176.954 C 306.345 175.142,307.832 174.931,309.510 175.981 C 312.577 177.899,311.860 180.857,306.681 187.653 C 303.705 191.557,303.335 192.202,302.559 194.815 C 301.959 196.833,300.214 199.428,297.591 202.200 C 296.759 203.080,295.137 205.690,293.988 208.000 C 292.839 210.310,291.393 212.920,290.775 213.800 C 290.156 214.680,288.784 216.865,287.725 218.655 C 286.666 220.445,285.440 222.509,285.000 223.242 C 284.226 224.531,283.298 226.107,278.200 234.801 C 276.880 237.052,274.960 240.016,273.934 241.388 C 272.908 242.760,271.313 245.393,270.389 247.241 C 268.385 251.251,265.534 255.992,263.799 258.200 C 261.934 260.574,258.991 265.253,258.108 267.249 C 257.682 268.213,256.315 270.579,255.071 272.507 C 253.827 274.435,252.423 276.775,251.950 277.706 C 251.477 278.638,250.395 280.374,249.545 281.565 C 248.695 282.756,248.000 283.950,248.000 284.219 C 248.000 284.487,247.180 285.904,246.179 287.367 C 245.177 288.830,243.312 291.966,242.035 294.335 C 240.758 296.704,238.913 299.713,237.934 301.021 C 236.955 302.329,235.320 304.758,234.300 306.418 C 228.851 315.285,230.636 314.805,203.174 314.775 C 172.663 314.741,172.808 314.760,169.079 310.167 C 167.480 308.196,162.400 299.957,162.400 299.334 C 162.400 299.107,159.783 294.708,154.588 286.200 C 152.438 282.680,149.237 277.370,147.473 274.400 C 144.467 269.337,143.529 267.714,139.672 260.900 C 137.332 256.766,135.082 253.198,132.798 249.998 C 131.657 248.399,129.636 245.090,128.307 242.645 C 126.978 240.200,125.578 237.750,125.197 237.200 C 124.815 236.650,122.659 232.960,120.405 229.000 C 118.151 225.040,115.090 219.910,113.604 217.600 C 112.117 215.290,110.311 212.320,109.590 211.000 C 107.993 208.073,106.497 205.599,103.785 201.400 C 102.649 199.640,100.754 196.490,99.574 194.401 C 98.394 192.311,96.307 188.831,94.935 186.667 C 91.957 181.970,90.875 179.407,91.470 178.457 C 92.042 177.543,94.492 177.420,96.052 178.227 C 96.767 178.596,99.072 179.490,101.176 180.212 C 103.279 180.934,107.340 182.351,110.200 183.362 C 113.060 184.372,115.867 185.199,116.438 185.199 C 120.133 185.201,119.379 179.867,114.203 169.400 C 112.691 166.342,111.000 162.182,108.999 156.600 C 107.518 152.466,104.421 145.414,103.407 143.867 C 103.028 143.288,102.300 141.507,101.790 139.907 C 100.221 134.989,98.158 129.667,95.391 123.400 C 89.472 109.994,89.787 109.035,99.200 111.797 C 101.290 112.410,103.845 113.335,104.877 113.851 C 105.909 114.368,108.249 115.226,110.077 115.758 C 116.169 117.533,132.345 123.137,134.316 124.157 C 134.912 124.465,137.858 125.534,140.863 126.533 C 150.149 129.620,151.039 130.275,152.909 135.400 C 154.020 138.446,154.997 140.868,157.105 145.800 C 159.182 150.662,164.839 164.962,166.385 169.259 C 166.809 170.437,168.176 173.830,169.425 176.800 C 170.673 179.770,172.135 183.460,172.673 185.000 C 173.882 188.459,176.146 193.865,177.628 196.832 C 178.241 198.060,179.039 200.205,179.400 201.600 C 179.761 202.995,180.569 205.150,181.194 206.389 C 181.820 207.628,182.635 209.712,183.006 211.021 C 183.376 212.329,184.174 214.300,184.779 215.400 C 185.384 216.500,186.344 218.570,186.913 220.000 C 187.482 221.430,188.315 223.410,188.765 224.400 C 189.741 226.550,189.865 229.682,189.002 230.398 C 187.643 231.526,184.706 230.825,174.800 227.010 C 166.135 223.673,165.548 223.532,164.317 224.500 C 162.565 225.877,163.912 229.429,168.703 236.065 C 170.035 237.911,172.552 242.026,174.296 245.210 C 177.057 250.253,179.062 253.665,184.513 262.600 C 185.185 263.700,186.692 266.348,187.864 268.483 C 191.596 275.286,197.242 283.746,198.680 284.689 C 200.609 285.954,203.950 282.420,207.611 275.245 C 208.777 272.960,210.350 270.279,211.106 269.288 C 212.634 267.286,216.203 261.368,216.752 259.926 C 217.119 258.964,220.778 252.846,222.543 250.246 C 223.099 249.427,224.578 246.741,225.830 244.278 C 228.693 238.646,230.571 235.494,232.434 233.200 C 237.944 226.410,236.087 222.260,229.314 226.229 C 228.351 226.794,225.821 227.697,223.692 228.237 C 221.564 228.777,218.647 229.556,217.211 229.967 C 209.080 232.298,208.090 230.266,212.647 220.600 C 214.099 217.520,215.973 213.020,216.812 210.600 C 220.002 201.392,221.127 198.468,222.151 196.720 C 222.733 195.727,223.648 193.674,224.186 192.158 C 226.409 185.886,227.612 182.745,228.336 181.314 C 228.757 180.481,229.777 177.910,230.602 175.600 C 231.427 173.290,233.142 168.970,234.413 166.000 C 235.684 163.030,236.935 159.790,237.193 158.800 C 237.735 156.721,239.807 151.612,241.980 147.000 C 242.809 145.240,243.704 142.900,243.969 141.800 C 244.234 140.700,245.250 138.052,246.226 135.915 C 247.201 133.779,248.000 131.858,248.000 131.646 C 248.000 129.884,253.811 126.724,262.200 123.925 C 265.500 122.823,269.730 121.333,271.600 120.612 C 273.470 119.891,275.990 119.073,277.200 118.795 C 278.410 118.517,280.458 117.760,281.751 117.113 C 283.045 116.466,285.565 115.665,287.351 115.334 C 289.466 114.942,291.490 114.238,293.148 113.319 C 294.549 112.543,297.339 111.495,299.348 110.990 C 301.357 110.486,303.630 109.794,304.400 109.452 C 306.178 108.664,307.975 108.655,309.000 109.431 M205.322 239.578 C 205.210 240.005,204.732 240.410,204.259 240.478 C 203.180 240.631,202.841 242.287,203.812 242.660 C 204.193 242.806,204.639 242.677,204.848 242.358 C 205.148 241.904,205.357 241.967,205.972 242.700 C 207.033 243.963,207.200 243.844,207.200 241.829 C 207.200 239.533,205.779 237.830,205.322 239.578 M213.600 246.910 C 213.600 247.483,213.787 248.068,214.016 248.210 C 214.289 248.379,214.338 248.077,214.160 247.334 C 213.792 245.801,213.600 245.656,213.600 246.910 M196.724 265.427 C 196.173 266.390,196.024 268.126,196.364 269.637 C 196.871 271.893,197.460 272.419,197.972 271.073 C 198.225 270.409,198.584 270.096,198.938 270.231 C 199.295 270.368,199.587 270.104,199.736 269.512 C 200.079 268.146,199.615 266.800,198.802 266.800 C 198.415 266.800,197.837 266.407,197.518 265.927 C 197.199 265.446,196.842 265.221,196.724 265.427 " stroke="none" fill="#b62ef0" fill-rule="evenodd"></path><path id="path2" d="M0.000 200.000 L 0.000 400.000 87.750 400.000 C 136.013 400.000,176.063 399.888,176.750 399.750 C 178.173 399.465,178.441 398.800,177.133 398.800 C 175.694 398.800,176.518 398.437,178.826 398.054 C 180.749 397.735,180.827 397.688,179.500 397.647 L 178.000 397.600 178.000 384.400 L 178.000 371.200 179.417 371.200 C 180.242 371.200,181.165 370.891,181.628 370.460 C 182.065 370.053,183.542 369.387,184.911 368.979 C 186.280 368.572,187.490 368.136,187.600 368.010 C 187.710 367.884,188.313 367.455,188.940 367.055 L 190.080 366.329 189.940 361.464 C 189.817 357.191,189.691 356.447,188.900 355.338 C 188.083 354.193,188.000 353.620,188.000 349.116 L 188.000 344.156 186.600 342.628 C 184.652 340.501,185.136 334.363,187.351 333.124 C 187.659 332.951,188.020 332.403,188.153 331.905 C 188.287 331.407,189.108 330.564,189.979 330.031 C 190.859 329.493,191.615 328.694,191.681 328.231 C 191.777 327.560,192.042 327.423,193.054 327.519 C 194.270 327.635,195.868 326.825,198.400 324.808 C 199.121 324.234,199.750 324.076,200.654 324.242 C 201.376 324.374,202.023 324.287,202.178 324.036 C 202.326 323.796,203.217 323.600,204.158 323.600 C 208.025 323.600,212.746 321.321,212.232 319.702 C 211.894 318.637,209.759 318.407,200.200 318.406 C 193.051 318.406,185.603 318.033,176.770 317.234 C 172.131 316.814,170.357 315.997,168.309 313.337 C 167.489 312.272,166.249 310.770,165.553 310.000 C 163.723 307.975,162.028 305.216,159.426 300.029 C 158.165 297.516,156.698 294.819,156.166 294.037 C 155.635 293.254,155.200 292.421,155.200 292.185 C 155.200 291.950,154.628 290.866,153.928 289.778 C 153.229 288.690,151.910 286.360,150.997 284.600 C 150.083 282.840,147.756 278.797,145.825 275.616 C 143.893 272.435,141.815 268.835,141.207 267.616 C 138.063 261.316,135.221 256.670,131.042 251.000 C 129.744 249.240,128.278 246.900,127.784 245.800 C 126.817 243.649,125.136 240.657,122.390 236.200 C 121.441 234.660,119.181 230.569,117.367 227.110 C 115.554 223.650,113.452 220.050,112.698 219.110 C 111.943 218.169,110.363 215.690,109.187 213.600 C 105.523 207.091,103.528 203.848,102.363 202.509 C 101.745 201.799,100.142 199.065,98.801 196.434 C 97.460 193.804,95.204 189.930,93.788 187.827 C 86.076 176.373,87.611 172.454,97.966 177.165 C 99.855 178.024,102.030 178.849,102.800 178.998 C 103.570 179.148,105.424 179.882,106.921 180.629 C 112.020 183.177,116.127 183.837,116.861 182.226 C 117.345 181.164,114.930 173.937,112.975 170.596 C 112.459 169.713,111.571 167.757,111.003 166.247 C 110.435 164.738,109.684 162.950,109.335 162.274 C 108.985 161.598,108.372 159.900,107.972 158.501 C 107.191 155.771,105.646 152.232,102.864 146.800 C 101.907 144.930,100.162 140.475,98.987 136.900 C 97.812 133.325,96.486 129.725,96.039 128.900 C 93.422 124.071,89.576 114.062,89.488 111.854 C 89.358 108.584,92.340 107.720,97.508 109.531 C 99.429 110.204,102.072 111.050,103.383 111.412 C 104.694 111.774,106.601 112.494,107.622 113.011 C 108.643 113.529,110.978 114.335,112.811 114.803 C 114.644 115.271,116.633 115.907,117.232 116.216 C 117.830 116.526,120.093 117.312,122.260 117.962 C 124.427 118.613,127.820 119.795,129.800 120.590 C 137.852 123.821,140.265 124.721,141.600 124.993 C 148.142 126.324,152.394 129.113,153.957 133.097 C 156.417 139.367,158.299 143.849,159.289 145.800 C 160.727 148.631,163.149 154.566,164.039 157.438 C 164.454 158.778,165.311 161.028,165.944 162.438 C 166.577 163.847,168.033 167.520,169.179 170.600 C 170.324 173.680,171.763 177.190,172.376 178.400 C 172.988 179.610,173.899 181.860,174.399 183.400 C 175.796 187.694,177.947 192.763,179.408 195.200 C 180.220 196.555,180.888 198.369,181.148 199.924 C 181.380 201.320,182.099 203.375,182.755 204.524 C 183.408 205.666,184.250 207.826,184.626 209.325 C 185.002 210.824,185.763 212.714,186.318 213.525 C 186.872 214.336,187.738 215.990,188.242 217.200 C 188.745 218.410,189.887 220.837,190.779 222.592 C 194.587 230.091,191.726 235.907,185.533 233.259 C 184.580 232.851,182.658 232.317,181.262 232.072 C 179.834 231.821,177.648 231.032,176.262 230.266 C 173.060 228.497,168.737 226.800,167.432 226.800 C 165.172 226.800,167.027 231.125,171.206 235.600 C 173.787 238.364,178.000 245.404,178.000 246.953 C 178.000 247.573,181.573 253.382,183.072 255.200 C 183.707 255.970,184.576 257.274,185.003 258.097 C 185.429 258.920,186.638 260.428,187.689 261.447 C 188.740 262.467,189.614 263.503,189.631 263.750 C 189.823 266.577,194.282 273.742,195.366 272.967 C 195.495 272.875,195.517 272.913,195.416 273.051 C 194.770 273.931,198.453 278.400,199.825 278.400 C 202.957 278.400,204.442 273.082,201.993 270.633 C 201.502 270.142,201.468 265.871,201.957 266.174 C 202.154 266.295,202.427 265.946,202.565 265.397 C 202.703 264.849,203.023 264.400,203.276 264.400 C 203.530 264.400,204.050 264.117,204.433 263.770 C 204.816 263.424,205.920 263.087,206.887 263.022 C 208.726 262.898,210.243 262.187,210.588 261.288 C 210.716 260.953,210.614 260.868,210.311 261.055 C 210.048 261.218,210.259 260.642,210.781 259.776 C 213.259 255.663,213.785 254.581,213.005 255.200 C 212.316 255.747,212.274 255.736,212.525 255.067 C 212.676 254.664,212.811 253.944,212.825 253.467 C 212.850 252.616,212.857 252.617,213.222 253.526 C 213.426 254.035,213.730 254.385,213.897 254.305 C 216.608 252.992,217.227 252.460,218.384 250.445 C 220.005 247.624,220.240 246.130,219.119 245.774 C 218.669 245.631,218.188 245.688,218.050 245.901 C 217.714 246.419,216.580 246.210,215.345 245.401 C 214.388 244.774,214.370 244.696,215.006 243.994 C 215.376 243.585,215.568 243.072,215.433 242.853 C 215.298 242.634,215.373 242.340,215.600 242.200 C 215.827 242.060,215.922 241.798,215.812 241.619 C 215.524 241.154,218.371 238.814,218.952 239.037 C 219.777 239.354,221.301 237.172,221.503 235.386 C 221.862 232.199,218.265 231.368,213.800 233.606 C 209.286 235.869,207.323 235.514,206.588 232.300 C 206.450 231.695,206.191 231.200,206.013 231.200 C 204.143 231.200,206.265 223.885,209.205 220.199 C 211.663 217.117,214.399 210.340,214.401 207.329 C 214.401 206.488,214.716 205.230,215.101 204.534 C 215.485 203.838,216.200 202.550,216.689 201.671 C 217.179 200.792,217.698 199.292,217.844 198.337 C 218.179 196.149,218.584 195.330,220.148 193.678 C 221.470 192.281,221.951 188.991,220.975 188.015 C 220.445 187.485,218.032 188.213,217.304 189.122 C 217.031 189.463,216.688 189.621,216.541 189.474 C 216.394 189.327,216.014 189.423,215.696 189.686 C 215.016 190.250,215.382 184.995,216.083 184.118 C 216.295 183.852,216.336 183.420,216.173 183.157 C 216.011 182.894,216.141 182.481,216.464 182.239 C 216.786 181.998,217.162 181.499,217.300 181.131 C 217.645 180.210,219.245 180.057,220.134 180.860 C 220.537 181.224,221.302 181.474,221.834 181.416 C 222.365 181.358,222.800 181.478,222.800 181.684 C 222.800 182.227,223.692 181.226,224.754 179.489 C 225.262 178.659,225.910 177.747,226.193 177.464 C 228.218 175.439,228.862 172.075,227.988 168.093 C 227.456 165.672,227.467 165.555,228.318 164.704 C 228.843 164.179,229.200 164.030,229.200 164.335 C 229.200 164.617,229.380 164.736,229.600 164.600 C 229.820 164.464,230.000 164.575,230.000 164.846 C 230.000 167.451,234.024 160.131,235.174 155.436 C 235.653 153.475,236.304 151.373,236.618 150.765 C 236.933 150.156,237.290 148.790,237.411 147.729 C 237.533 146.668,237.720 145.508,237.827 145.150 C 237.971 144.671,237.759 144.500,237.022 144.500 C 236.429 144.500,235.934 144.779,235.804 145.186 C 235.422 146.391,233.616 147.110,233.020 146.295 C 232.746 145.920,232.404 145.730,232.260 145.873 C 232.117 146.016,232.000 145.839,232.000 145.479 C 232.000 145.062,231.783 144.909,231.400 145.055 C 230.525 145.391,230.641 144.552,231.998 140.731 C 232.658 138.876,233.544 135.747,233.969 133.779 C 234.896 129.480,235.805 127.200,236.591 127.200 C 236.911 127.200,237.767 126.678,238.493 126.040 C 241.903 123.046,243.351 128.704,240.671 134.556 C 240.082 135.843,239.597 137.280,239.594 137.748 C 239.591 138.217,239.345 139.320,239.047 140.200 C 238.749 141.080,238.390 142.340,238.250 143.000 L 237.993 144.200 238.564 143.200 C 238.878 142.650,239.208 142.290,239.296 142.400 C 239.580 142.753,240.752 141.329,241.004 140.325 C 241.309 139.110,241.530 137.942,241.569 137.329 C 241.586 137.069,241.883 136.574,242.229 136.229 C 242.574 135.883,242.709 135.597,242.529 135.594 C 242.348 135.591,242.389 135.456,242.619 135.294 C 243.409 134.741,244.681 132.600,245.409 130.600 C 245.810 129.500,246.261 128.420,246.411 128.200 C 247.946 125.951,247.488 124.724,244.847 124.013 C 242.957 123.504,242.732 122.725,244.197 121.765 C 244.745 121.406,245.087 120.941,244.957 120.731 C 244.677 120.278,247.800 117.296,248.744 117.117 C 249.105 117.048,249.458 116.584,249.529 116.085 C 249.612 115.504,249.894 115.218,250.315 115.289 C 250.705 115.355,251.034 115.076,251.127 114.600 C 251.212 114.160,251.507 113.530,251.780 113.200 C 252.886 111.868,252.887 111.091,251.784 111.368 C 250.876 111.596,250.804 111.540,251.158 110.879 C 251.423 110.384,251.935 110.160,252.679 110.213 C 253.295 110.258,253.485 110.216,253.100 110.119 C 252.446 109.956,252.401 108.735,252.408 91.472 L 252.416 73.000 254.208 71.220 L 256.000 69.441 256.016 64.620 L 256.032 59.800 257.781 57.900 C 259.320 56.228,259.727 56.000,261.165 56.000 L 262.800 56.000 262.800 44.194 L 262.800 32.387 264.300 31.694 C 265.125 31.312,265.890 30.910,266.000 30.799 C 266.205 30.594,267.119 30.154,269.616 29.062 C 270.395 28.721,272.265 28.245,273.772 28.004 C 275.279 27.764,276.887 27.304,277.345 26.983 C 277.803 26.663,278.492 26.400,278.875 26.400 C 279.258 26.400,279.758 26.053,279.985 25.628 C 280.212 25.203,280.804 24.798,281.299 24.728 C 282.145 24.608,282.215 24.356,282.452 20.600 C 282.591 18.400,282.906 15.532,283.152 14.227 C 283.398 12.921,283.600 9.739,283.600 7.154 C 283.600 2.600,283.628 2.450,284.500 2.282 L 285.400 2.109 284.500 2.054 C 283.821 2.013,283.600 1.754,283.600 1.000 L 283.600 0.000 141.800 0.000 L 0.000 0.000 0.000 200.000 M206.571 239.429 C 207.168 240.025,207.504 243.600,206.964 243.600 C 206.834 243.600,206.388 243.195,205.972 242.700 C 205.357 241.967,205.148 241.904,204.848 242.358 C 204.639 242.677,204.193 242.806,203.812 242.660 C 202.841 242.287,203.180 240.631,204.259 240.478 C 204.732 240.410,205.210 240.005,205.322 239.578 C 205.568 238.636,205.756 238.614,206.571 239.429 M214.160 247.334 C 214.338 248.077,214.289 248.379,214.016 248.210 C 213.787 248.068,213.600 247.483,213.600 246.910 C 213.600 245.656,213.792 245.801,214.160 247.334 M198.802 266.800 C 199.615 266.800,200.079 268.146,199.736 269.512 C 199.587 270.104,199.295 270.368,198.938 270.231 C 198.584 270.096,198.225 270.409,197.972 271.073 C 197.220 273.052,195.675 269.298,196.251 266.888 C 196.661 265.171,196.897 264.992,197.518 265.927 C 197.837 266.407,198.415 266.800,198.802 266.800 " stroke="none" fill="#7a34e6" fill-rule="evenodd"></path><path id="path3" d="M304.400 109.452 C 303.630 109.794,301.357 110.486,299.348 110.990 C 297.339 111.495,294.549 112.543,293.148 113.319 C 291.490 114.238,289.466 114.942,287.351 115.334 C 285.565 115.665,283.045 116.466,281.751 117.113 C 280.458 117.760,278.410 118.517,277.200 118.795 C 275.990 119.073,273.470 119.891,271.600 120.612 C 269.730 121.333,265.500 122.823,262.200 123.925 C 253.811 126.724,248.000 129.884,248.000 131.646 C 248.000 131.858,247.201 133.779,246.226 135.915 C 245.250 138.052,244.234 140.700,243.969 141.800 C 243.704 142.900,242.809 145.240,241.980 147.000 C 239.807 151.612,237.735 156.721,237.193 158.800 C 236.935 159.790,235.684 163.030,234.413 166.000 C 233.142 168.970,231.427 173.290,230.602 175.600 C 229.777 177.910,228.739 180.517,228.295 181.392 C 227.852 182.268,227.075 184.158,226.567 185.592 C 226.060 187.027,225.179 189.439,224.610 190.954 C 224.040 192.468,223.635 193.769,223.710 193.843 C 223.848 193.981,225.255 190.590,229.536 179.800 C 230.845 176.500,232.445 172.540,233.092 171.000 C 233.738 169.460,235.044 166.040,235.995 163.400 C 236.945 160.760,239.118 155.360,240.823 151.400 C 242.529 147.440,244.140 143.393,244.403 142.407 C 247.034 132.538,250.058 129.311,259.800 125.976 C 262.220 125.148,266.450 123.628,269.200 122.600 C 271.950 121.571,276.360 120.044,279.000 119.206 C 285.129 117.259,289.618 115.757,292.400 114.722 C 310.637 107.936,311.267 108.344,305.055 122.917 C 303.441 126.703,301.188 132.230,300.047 135.200 C 298.907 138.170,297.594 141.410,297.131 142.400 C 295.019 146.907,291.951 154.257,291.239 156.516 C 290.354 159.323,287.579 166.105,284.166 173.800 C 279.133 185.150,281.310 186.936,293.800 181.705 C 295.120 181.153,297.550 180.291,299.200 179.791 C 300.850 179.291,303.245 178.498,304.522 178.030 C 310.638 175.785,310.559 179.140,304.265 189.000 C 301.946 192.632,299.739 196.265,292.964 207.600 C 290.926 211.010,288.391 215.150,287.332 216.800 C 286.272 218.450,284.040 222.140,282.371 225.000 C 280.703 227.860,278.346 231.730,277.135 233.600 C 275.923 235.470,273.625 239.340,272.029 242.200 C 270.432 245.060,268.288 248.648,267.263 250.173 C 266.238 251.697,264.050 255.246,262.400 258.059 C 260.750 260.871,257.127 266.913,254.349 271.486 C 251.571 276.059,248.263 281.510,246.997 283.600 C 245.732 285.690,244.206 288.210,243.606 289.200 C 243.006 290.190,241.433 292.710,240.111 294.800 C 238.789 296.890,236.571 300.580,235.183 303.000 C 231.841 308.828,229.985 311.233,227.913 312.419 L 226.200 313.400 200.200 313.400 L 174.200 313.400 172.416 312.400 C 169.833 310.952,167.393 307.520,161.896 297.600 C 161.103 296.170,160.156 294.640,159.791 294.200 C 159.426 293.760,159.630 294.300,160.244 295.400 C 160.858 296.500,161.790 298.210,162.315 299.200 C 171.022 315.622,168.698 314.736,203.174 314.775 C 230.636 314.805,228.851 315.285,234.300 306.418 C 235.320 304.758,236.955 302.329,237.934 301.021 C 238.913 299.713,240.758 296.704,242.035 294.335 C 243.312 291.966,245.177 288.830,246.179 287.367 C 247.180 285.904,248.000 284.487,248.000 284.219 C 248.000 283.950,248.695 282.756,249.545 281.565 C 250.395 280.374,251.477 278.638,251.950 277.706 C 252.423 276.775,253.827 274.435,255.071 272.507 C 256.315 270.579,257.682 268.213,258.108 267.249 C 258.991 265.253,261.934 260.574,263.799 258.200 C 265.534 255.992,268.385 251.251,270.389 247.241 C 271.313 245.393,272.908 242.760,273.934 241.388 C 274.960 240.016,276.880 237.052,278.200 234.801 C 283.298 226.107,284.226 224.531,285.000 223.242 C 285.440 222.509,286.666 220.445,287.725 218.655 C 288.784 216.865,290.156 214.680,290.775 213.800 C 291.393 212.920,292.839 210.310,293.988 208.000 C 295.137 205.690,296.759 203.080,297.591 202.200 C 300.214 199.428,301.959 196.833,302.559 194.815 C 303.335 192.202,303.705 191.557,306.681 187.653 C 311.860 180.857,312.577 177.899,309.510 175.981 C 307.832 174.931,306.345 175.142,302.632 176.954 C 301.074 177.714,298.270 178.740,296.400 179.235 C 294.530 179.729,291.216 181.003,289.035 182.066 C 282.042 185.477,279.971 183.540,283.834 177.200 C 284.571 175.990,285.645 173.740,286.221 172.200 C 286.797 170.660,287.430 169.205,287.627 168.967 C 288.424 168.007,291.656 160.035,292.214 157.653 C 292.542 156.252,293.438 153.679,294.205 151.934 C 294.972 150.189,295.600 148.520,295.600 148.226 C 295.600 147.932,296.323 146.609,297.206 145.286 C 298.089 143.964,299.517 140.981,300.378 138.659 C 301.240 136.336,302.689 132.852,303.599 130.918 C 304.509 128.983,305.773 125.870,306.408 124.000 C 307.043 122.130,308.025 119.293,308.592 117.696 C 311.104 110.612,309.389 107.239,304.400 109.452 M399.600 111.667 C 399.600 111.923,399.482 112.015,399.337 111.870 C 398.905 111.438,398.000 112.434,397.994 113.349 C 397.989 114.010,397.907 114.073,397.627 113.630 C 397.356 113.202,397.224 113.350,397.093 114.230 C 396.959 115.133,396.897 114.989,396.820 113.600 L 396.720 111.800 396.362 113.400 C 396.165 114.280,395.912 115.395,395.800 115.878 C 395.630 116.607,395.272 116.777,393.698 116.878 L 391.800 117.000 391.688 122.080 L 391.576 127.160 389.788 128.949 L 388.000 130.737 388.000 135.560 L 388.000 140.384 386.449 141.175 C 385.596 141.610,384.795 142.235,384.669 142.565 C 384.542 142.894,383.710 143.536,382.819 143.990 C 381.395 144.717,381.200 144.984,381.200 146.208 L 381.200 147.600 377.800 147.600 L 374.400 147.600 374.400 166.200 L 374.400 184.800 373.230 184.800 L 372.059 184.800 371.930 190.500 C 371.823 195.189,371.664 196.448,371.036 197.600 C 370.344 198.868,370.250 200.227,370.036 212.000 C 369.770 226.673,369.830 226.377,366.269 230.453 C 364.844 232.085,364.381 232.367,363.100 232.382 L 361.600 232.400 361.600 235.777 C 361.600 239.017,360.706 241.825,359.513 242.333 C 359.341 242.407,359.200 245.058,359.200 248.225 L 359.200 253.984 356.802 256.492 C 355.483 257.871,354.403 259.110,354.402 259.245 C 354.399 259.553,350.245 260.400,348.733 260.400 L 347.600 260.400 347.600 271.800 L 347.600 283.200 349.800 283.200 L 352.000 283.200 352.000 296.511 C 352.000 312.292,352.252 311.370,347.817 311.786 C 342.029 312.328,341.606 313.419,341.601 327.800 C 341.596 340.507,341.286 341.294,335.700 342.779 C 334.765 343.027,334.000 343.397,334.000 343.599 C 334.000 343.802,333.280 344.184,332.400 344.447 L 330.800 344.927 330.800 356.063 C 330.800 366.543,330.755 367.237,330.035 367.835 C 328.675 368.963,325.025 372.569,324.126 373.673 C 323.383 374.586,322.829 374.788,320.426 375.025 L 317.600 375.303 317.600 385.252 L 317.600 395.200 321.000 395.200 C 323.000 395.200,324.400 395.365,324.400 395.600 C 324.400 395.835,323.008 396.000,321.024 396.000 C 319.167 396.000,317.536 396.180,317.400 396.400 C 317.241 396.657,318.631 396.802,321.276 396.806 C 324.087 396.810,325.209 396.936,324.800 397.200 C 324.357 397.486,324.338 397.589,324.729 397.594 C 327.111 397.621,323.559 398.788,320.745 398.902 L 317.400 399.037 320.900 399.119 C 322.912 399.165,324.400 399.370,324.400 399.600 C 324.400 399.864,337.267 400.000,362.200 400.000 L 400.000 400.000 400.000 255.600 C 400.000 176.180,399.910 111.200,399.800 111.200 C 399.690 111.200,399.600 111.410,399.600 111.667 M150.141 130.968 C 150.943 131.770,151.600 132.631,151.600 132.880 C 151.600 133.129,151.710 133.224,151.844 133.090 C 152.188 132.746,150.509 130.487,149.513 129.954 C 149.051 129.706,149.329 130.156,150.141 130.968 M157.281 147.007 C 157.625 148.186,160.541 154.793,160.663 154.670 C 160.844 154.489,158.748 149.380,157.841 147.789 C 157.468 147.135,157.216 146.783,157.281 147.007 M91.680 178.080 C 91.416 178.344,91.218 178.929,91.240 179.380 C 91.273 180.066,91.325 180.037,91.556 179.200 C 91.783 178.379,92.151 178.157,93.616 177.960 L 95.400 177.720 93.780 177.660 C 92.889 177.627,91.944 177.816,91.680 178.080 M222.237 196.532 C 221.107 198.547,219.932 201.594,216.812 210.600 C 215.973 213.020,214.099 217.520,212.647 220.600 C 208.090 230.266,209.080 232.298,217.211 229.967 C 218.647 229.556,221.584 228.772,223.737 228.226 C 225.891 227.680,228.299 226.833,229.089 226.345 C 229.879 225.857,231.442 225.235,232.563 224.963 C 234.435 224.508,234.486 224.466,233.200 224.442 C 232.430 224.428,230.540 224.871,229.000 225.426 C 209.655 232.396,208.395 231.972,213.446 220.200 C 216.039 214.157,217.868 209.501,219.993 203.532 C 220.828 201.184,221.985 198.232,222.562 196.971 C 223.893 194.063,223.740 193.855,222.237 196.532 M176.419 194.846 C 176.409 194.982,177.037 196.422,177.816 198.046 C 178.594 199.671,179.111 200.550,178.964 200.000 C 178.680 198.941,176.452 194.427,176.419 194.846 M184.403 215.290 C 184.401 215.450,184.759 216.170,185.199 216.890 C 185.638 217.611,185.996 218.020,185.996 217.800 C 185.995 217.580,185.637 216.860,185.200 216.200 C 184.763 215.540,184.404 215.131,184.403 215.290 M186.026 218.466 C 186.012 218.612,186.648 220.412,187.440 222.466 C 190.478 230.341,189.210 231.719,181.433 228.991 C 177.183 227.501,175.797 227.342,179.286 228.746 C 190.355 233.201,192.027 231.067,186.608 219.400 C 186.302 218.740,186.040 218.320,186.026 218.466 M234.836 229.500 C 234.333 230.535,233.258 232.196,232.447 233.191 C 230.577 235.485,228.706 238.620,225.830 244.278 C 224.578 246.741,223.099 249.427,222.543 250.246 C 220.778 252.846,217.119 258.964,216.752 259.926 C 216.203 261.368,212.634 267.286,211.106 269.288 C 210.350 270.279,208.775 272.960,207.607 275.245 C 204.261 281.790,200.987 285.567,199.163 284.988 C 198.309 284.717,195.060 280.494,192.857 276.793 C 192.135 275.579,191.178 274.139,190.732 273.593 L 189.921 272.600 190.728 274.000 C 191.173 274.770,192.194 276.570,192.999 278.000 C 197.553 286.090,200.441 287.392,203.754 282.851 C 205.690 280.197,215.228 264.330,218.584 258.179 C 220.151 255.308,221.806 252.428,222.261 251.779 C 223.166 250.492,225.257 247.007,229.208 240.200 C 230.612 237.780,232.172 235.248,232.673 234.572 C 233.660 233.244,236.141 228.008,235.899 227.766 C 235.818 227.684,235.339 228.465,234.836 229.500 M168.316 236.100 C 168.951 237.035,170.518 239.690,171.799 242.000 C 173.081 244.310,175.246 248.000,176.612 250.200 C 177.978 252.400,179.960 255.730,181.015 257.600 C 182.070 259.470,183.597 262.080,184.408 263.400 C 185.219 264.720,186.736 267.285,187.779 269.100 C 188.823 270.915,189.754 272.400,189.848 272.400 C 190.077 272.400,187.073 266.827,185.213 263.800 C 180.734 256.510,177.126 250.365,174.320 245.247 C 172.585 242.083,170.347 238.348,169.347 236.947 C 167.321 234.107,166.512 233.443,168.316 236.100 M129.400 244.800 C 129.741 245.460,130.111 246.000,130.221 246.000 C 130.331 246.000,130.141 245.460,129.800 244.800 C 129.459 244.140,129.089 243.600,128.979 243.600 C 128.869 243.600,129.059 244.140,129.400 244.800 M143.324 267.400 C 143.662 268.060,144.238 268.960,144.604 269.400 C 144.970 269.840,144.865 269.480,144.370 268.600 C 143.280 266.658,142.464 265.722,143.324 267.400 M145.800 271.600 C 146.141 272.260,146.511 272.800,146.621 272.800 C 146.731 272.800,146.541 272.260,146.200 271.600 C 145.859 270.940,145.489 270.400,145.379 270.400 C 145.269 270.400,145.459 270.940,145.800 271.600 M148.600 276.400 C 148.941 277.060,149.311 277.600,149.421 277.600 C 149.531 277.600,149.341 277.060,149.000 276.400 C 148.659 275.740,148.289 275.200,148.179 275.200 C 148.069 275.200,148.259 275.740,148.600 276.400 M150.209 279.026 C 150.581 279.701,151.241 280.691,151.676 281.226 L 152.467 282.200 151.791 280.974 C 151.419 280.299,150.759 279.309,150.324 278.774 L 149.533 277.800 150.209 279.026 M153.000 283.600 C 153.341 284.260,153.711 284.800,153.821 284.800 C 153.931 284.800,153.741 284.260,153.400 283.600 C 153.059 282.940,152.689 282.400,152.579 282.400 C 152.469 282.400,152.659 282.940,153.000 283.600 M154.349 285.800 C 154.565 286.240,155.034 286.960,155.393 287.400 L 156.044 288.200 155.651 287.400 C 155.435 286.960,154.966 286.240,154.607 285.800 L 153.956 285.000 154.349 285.800 " stroke="none" fill="#cc2ff3" fill-rule="evenodd"></path></g></svg>